<svg xmlns="http://www.w3.org/2000/svg" xmlns:xlink="http://www.w3.org/1999/xlink" xmlns:lucid="lucid" width="1500" height="3000"><g transform="translate(0 0)" lucid:page-tab-id="qhzjDJM~nkqf"><path d="M0 0h1500v3000H0z" fill="#fff"/><path d="M260.17 108a8 8 0 0 1 8-8h104a8 8 0 0 1 8 8v84a8 8 0 0 1-8 8h-104a8 8 0 0 1-8-8z" stroke="#333" fill="#fff"/><use xlink:href="#a" transform="matrix(1,0,0,1,260.17499999999995,100) translate(23.529999999999994 33.15)"/><use xlink:href="#b" transform="matrix(1,0,0,1,260.17499999999995,100) translate(63.529999999999994 33.15)"/><use xlink:href="#c" transform="matrix(1,0,0,1,260.17499999999995,100) translate(41.029999999999994 54.75)"/><use xlink:href="#d" transform="matrix(1,0,0,1,260.17499999999995,100) translate(10.079999999999993 76.35000000000001)"/><path d="M260.17 2568a8 8 0 0 1 8-8h104a8 8 0 0 1 8 8v84a8 8 0 0 1-8 8h-104a8 8 0 0 1-8-8z" stroke="#333" fill="#fff"/><use xlink:href="#e" transform="matrix(1,0,0,1,260.17499999999995,2560) translate(23.529999999999994 33.15)"/><use xlink:href="#f" transform="matrix(1,0,0,1,260.17499999999995,2560) translate(63.529999999999994 33.15)"/><use xlink:href="#g" transform="matrix(1,0,0,1,260.17499999999995,2560) translate(41.029999999999994 54.75)"/><use xlink:href="#h" transform="matrix(1,0,0,1,260.17499999999995,2560) translate(10.079999999999993 76.35000000000001)"/><path d="M320.17 200.95v5m0 5V221m0 5V236m0 5v10.02m0 5v10.02m0 5v10.02m0 5v10.02m0 5v10.02m0 5v10.02m0 5v10.02m0 5v10.02m0 5v10m0 5.02v10m0 5.02v10m0 5.02v10m0 5.02v10m0 5.02v10m0 5.02v10m0 5.02v10m0 5.02v10m0 5.02v10m0 5.02v10m0 5.02v10m0 5.02v10m0 5.02v10m0 5.02v10m0 5.02v10m0 5.02v10m0 5.02v10m0 5.02v10m0 5.02v10m0 5.02v10m0 5.02v10m0 5.02v10m0 5.02v10m0 5.02v10m0 5v10.03m0 5v10.02m0 5v10m0 5v10.03m0 5v10.02m0 5v10.02m0 5v10.02m0 5v10m0 5v10.03m0 5v10.02m0 5v10.02m0 5v10.02m0 5v10m0 5v10.02m0 5v10.02m0 5v10.02m0 5V987m0 5V1002m0 5v10.02m0 5v10.02m0 5v10.02m0 5v10.02m0 5v10.02m0 5v10.02m0 5v10.02m0 5v10.02m0 5v10.02m0 5v10.02m0 5v10.02m0 5v10.02m0 5v10.02m0 5v10.02m0 5v10.02m0 5v10.02m0 5v10.02m0 5v10.02m0 5v10.02m0 5v10.02m0 5v10.02m0 5v10.02m0 5v10.02m0 5v10.02m0 5v10.02m0 5v10.02m0 5v10.02m0 5v10.02m0 5v10.02m0 5v10.02m0 5v10.02m0 5v10m0 5.02v10m0 5.02v10m0 5.02v10m0 5.02v10m0 5.02v10m0 5.02v10m0 5.02v10m0 5.02v10m0 5.02v10m0 5.02v10m0 5.02v10m0 5.02v10m0 5.02v10m0 5.02v10m0 5.02v10m0 5.02v10m0 5.02v10m0 5.02v10m0 5.02v10m0 5.02v10m0 5.02v10m0 5.02v10m0 5.02v10m0 5.02v10m0 5v10.03m0 5v10.02m0 5v10.02m0 5v10.02m0 5v10m0 5v10.03m0 5v10.02m0 5v10.02m0 5v10.02m0 5v10m0 5v10.03m0 5v10.02m0 5v10m0 5.02v10m0 5.02v10m0 5v10.02m0 5v10.02m0 5v10.02m0 5v10.02m0 5v10.02m0 5v10.02m0 5v10.02m0 5v10.02m0 5v10.02m0 5v10.02m0 5v10.02m0 5v10.02m0 5v10.02m0 5v10.02m0 5v10.02m0 5v10.02m0 5v10.02m0 5v10.02m0 5v10.02m0 5v10.02m0 5v10.02m0 5v10.02m0 5v10.02m0 5v10.02m0 5v10.02m0 5v10.02m0 5v10.02m0 5v10.02m0 5v10.02m0 5V2519m0 5v10.02m0 5v10.02m0 5v5" stroke="#333" fill="none"/><path d="M320.68 200.96h-1v-.5h1zM320.68 2559.55h-1v-.5h1z" stroke="#333" stroke-width=".05" fill="#333"/><path d="M578.72 108a8 8 0 0 1 8-8h104a8 8 0 0 1 8 8v84a8 8 0 0 1-8 8h-104a8 8 0 0 1-8-8z" stroke="#333" fill="#fff"/><use xlink:href="#i" transform="matrix(1,0,0,1,578.7249999999999,100) translate(23.529999999999994 42.525)"/><use xlink:href="#b" transform="matrix(1,0,0,1,578.7249999999999,100) translate(63.529999999999994 42.525)"/><use xlink:href="#j" transform="matrix(1,0,0,1,578.7249999999999,100) translate(8.579999999999993 64.125)"/><use xlink:href="#k" transform="matrix(1,0,0,1,578.7249999999999,100) translate(51.529999999999994 64.125)"/><path d="M578.72 2568a8 8 0 0 1 8-8h104a8 8 0 0 1 8 8v84a8 8 0 0 1-8 8h-104a8 8 0 0 1-8-8z" stroke="#333" fill="#fff"/><use xlink:href="#l" transform="matrix(1,0,0,1,578.7249999999999,2560) translate(23.529999999999994 42.525)"/><use xlink:href="#f" transform="matrix(1,0,0,1,578.7249999999999,2560) translate(63.529999999999994 42.525)"/><use xlink:href="#m" transform="matrix(1,0,0,1,578.7249999999999,2560) translate(8.579999999999993 64.125)"/><use xlink:href="#n" transform="matrix(1,0,0,1,578.7249999999999,2560) translate(51.529999999999994 64.125)"/><path d="M638.72 200.95v5m0 5V221m0 5V236m0 5v10.02m0 5v10.02m0 5v10.02m0 5v10.02m0 5v10.02m0 5v10.02m0 5v10.02m0 5v10.02m0 5v10m0 5.02v10m0 5.02v10m0 5.02v10m0 5.02v10m0 5.02v10m0 5.02v10m0 5.02v10m0 5.02v10m0 5.02v10m0 5.02v10m0 5.02v10m0 5.02v10m0 5.02v10m0 5.02v10m0 5.02v10m0 5.02v10m0 5.02v10m0 5.02v10m0 5.02v10m0 5.02v10m0 5.02v10m0 5.02v10m0 5.02v10m0 5.02v10m0 5v10.03m0 5v10.02m0 5v10m0 5v10.03m0 5v10.02m0 5v10.02m0 5v10.02m0 5v10m0 5v10.03m0 5v10.02m0 5v10.02m0 5v10.02m0 5v10m0 5v10.02m0 5v10.02m0 5v10.02m0 5V987m0 5V1002m0 5v10.02m0 5v10.02m0 5v10.02m0 5v10.02m0 5v10.02m0 5v10.02m0 5v10.02m0 5v10.02m0 5v10.02m0 5v10.02m0 5v10.02m0 5v10.02m0 5v10.02m0 5v10.02m0 5v10.02m0 5v10.02m0 5v10.02m0 5v10.02m0 5v10.02m0 5v10.02m0 5v10.02m0 5v10.02m0 5v10.02m0 5v10.02m0 5v10.02m0 5v10.02m0 5v10.02m0 5v10.02m0 5v10.02m0 5v10.02m0 5v10.02m0 5v10m0 5.02v10m0 5.02v10m0 5.02v10m0 5.02v10m0 5.02v10m0 5.02v10m0 5.02v10m0 5.02v10m0 5.02v10m0 5.02v10m0 5.02v10m0 5.02v10m0 5.02v10m0 5.02v10m0 5.02v10m0 5.02v10m0 5.02v10m0 5.02v10m0 5.02v10m0 5.02v10m0 5.02v10m0 5.02v10m0 5.02v10m0 5.02v10m0 5v10.03m0 5v10.02m0 5v10.02m0 5v10.02m0 5v10m0 5v10.03m0 5v10.02m0 5v10.02m0 5v10.02m0 5v10m0 5v10.03m0 5v10.02m0 5v10m0 5.02v10m0 5.02v10m0 5v10.02m0 5v10.02m0 5v10.02m0 5v10.02m0 5v10.02m0 5v10.02m0 5v10.02m0 5v10.02m0 5v10.02m0 5v10.02m0 5v10.02m0 5v10.02m0 5v10.02m0 5v10.02m0 5v10.02m0 5v10.02m0 5v10.02m0 5v10.02m0 5v10.02m0 5v10.02m0 5v10.02m0 5v10.02m0 5v10.02m0 5v10.02m0 5v10.02m0 5v10.02m0 5v10.02m0 5v10.02m0 5v10.02m0 5V2519m0 5v10.02m0 5v10.02m0 5v5" stroke="#333" fill="none"/><path d="M639.23 200.96h-1v-.5h1zM639.23 2559.55h-1v-.5h1z" stroke="#333" stroke-width=".05" fill="#333"/><path d="M855.53 108a8 8 0 0 1 8-8h104a8 8 0 0 1 8 8v84a8 8 0 0 1-8 8h-104a8 8 0 0 1-8-8z" stroke="#333" fill="#fff"/><use xlink:href="#o" transform="matrix(1,0,0,1,855.5250000000001,100) translate(14.08 42.525)"/><use xlink:href="#b" transform="matrix(1,0,0,1,855.5250000000001,100) translate(72.97999999999999 42.525)"/><use xlink:href="#j" transform="matrix(1,0,0,1,855.5250000000001,100) translate(8.579999999999993 64.125)"/><use xlink:href="#k" transform="matrix(1,0,0,1,855.5250000000001,100) translate(51.529999999999994 64.125)"/><path d="M855.53 2568a8 8 0 0 1 8-8h104a8 8 0 0 1 8 8v84a8 8 0 0 1-8 8h-104a8 8 0 0 1-8-8z" stroke="#333" fill="#fff"/><use xlink:href="#p" transform="matrix(1,0,0,1,855.5250000000001,2560) translate(14.08 42.525)"/><use xlink:href="#f" transform="matrix(1,0,0,1,855.5250000000001,2560) translate(72.97999999999999 42.525)"/><use xlink:href="#m" transform="matrix(1,0,0,1,855.5250000000001,2560) translate(8.579999999999993 64.125)"/><use xlink:href="#n" transform="matrix(1,0,0,1,855.5250000000001,2560) translate(51.529999999999994 64.125)"/><path d="M915.53 200.95v5m0 5V221m0 5V236m0 5v10.02m0 5v10.02m0 5v10.02m0 5v10.02m0 5v10.02m0 5v10.02m0 5v10.02m0 5v10.02m0 5v10m0 5.02v10m0 5.02v10m0 5.02v10m0 5.02v10m0 5.02v10m0 5.02v10m0 5.02v10m0 5.02v10m0 5.02v10m0 5.02v10m0 5.02v10m0 5.02v10m0 5.02v10m0 5.02v10m0 5.02v10m0 5.02v10m0 5.02v10m0 5.02v10m0 5.02v10m0 5.02v10m0 5.02v10m0 5.02v10m0 5.02v10m0 5.02v10m0 5v10.03m0 5v10.02m0 5v10m0 5v10.03m0 5v10.02m0 5v10.02m0 5v10.02m0 5v10m0 5v10.03m0 5v10.02m0 5v10.02m0 5v10.02m0 5v10m0 5v10.02m0 5v10.02m0 5v10.02m0 5V987m0 5V1002m0 5v10.02m0 5v10.02m0 5v10.02m0 5v10.02m0 5v10.02m0 5v10.02m0 5v10.02m0 5v10.02m0 5v10.02m0 5v10.02m0 5v10.02m0 5v10.02m0 5v10.02m0 5v10.02m0 5v10.02m0 5v10.02m0 5v10.02m0 5v10.02m0 5v10.02m0 5v10.02m0 5v10.02m0 5v10.02m0 5v10.02m0 5v10.02m0 5v10.02m0 5v10.02m0 5v10.02m0 5v10.02m0 5v10.02m0 5v10.02m0 5v10.02m0 5v10m0 5.02v10m0 5.02v10m0 5.02v10m0 5.02v10m0 5.02v10m0 5.02v10m0 5.02v10m0 5.02v10m0 5.02v10m0 5.02v10m0 5.02v10m0 5.02v10m0 5.02v10m0 5.02v10m0 5.02v10m0 5.02v10m0 5.02v10m0 5.02v10m0 5.02v10m0 5.02v10m0 5.02v10m0 5.02v10m0 5.02v10m0 5.02v10m0 5v10.03m0 5v10.02m0 5v10.02m0 5v10.02m0 5v10m0 5v10.03m0 5v10.02m0 5v10.02m0 5v10.02m0 5v10m0 5v10.03m0 5v10.02m0 5v10m0 5.02v10m0 5.02v10m0 5v10.02m0 5v10.02m0 5v10.02m0 5v10.02m0 5v10.02m0 5v10.02m0 5v10.02m0 5v10.02m0 5v10.02m0 5v10.02m0 5v10.02m0 5v10.02m0 5v10.02m0 5v10.02m0 5v10.02m0 5v10.02m0 5v10.02m0 5v10.02m0 5v10.02m0 5v10.02m0 5v10.02m0 5v10.02m0 5v10.02m0 5v10.02m0 5v10.02m0 5v10.02m0 5v10.02m0 5v10.02m0 5v10.02m0 5V2519m0 5v10.02m0 5v10.02m0 5v5" stroke="#333" fill="none"/><path d="M916.02 200.96h-1v-.5h1zM916.02 2559.55h-1v-.5h1z" stroke="#333" stroke-width=".05" fill="#333"/><path d="M300.17 248.44a8 8 0 0 1 8-8h24a8 8 0 0 1 8 8v2303.1a8 8 0 0 1-8 8h-24a8 8 0 0 1-8-8zM618.72 248.44a8 8 0 0 1 8-8h24a8 8 0 0 1 8 8v2303.1a8 8 0 0 1-8 8h-24a8 8 0 0 1-8-8zM895.53 248.44a8 8 0 0 1 8-8h24a8 8 0 0 1 8 8v2303.1a8 8 0 0 1-8 8h-24a8 8 0 0 1-8-8z" stroke="#333" fill="#fff"/><path d="M160 260.4h308.35l12 12v48H160z" stroke="#333" fill="#fff"/><path d="M468.35 260.88v11.53h11.52" stroke="#333" fill="#fff"/><use xlink:href="#q" transform="matrix(1,0,0,1,164.99999999999994,265.40540264138673) translate(15.324999999999989 30.025)"/><use xlink:href="#r" transform="matrix(1,0,0,1,164.99999999999994,265.40540264138673) translate(74.225 30.025)"/><use xlink:href="#s" transform="matrix(1,0,0,1,164.99999999999994,265.40540264138673) translate(114.77499999999999 30.025)"/><use xlink:href="#t" transform="matrix(1,0,0,1,164.99999999999994,265.40540264138673) translate(176.77499999999998 30.025)"/><use xlink:href="#u" transform="matrix(1,0,0,1,164.99999999999994,265.40540264138673) translate(236.77499999999998 30.025)"/><path d="M340.67 380.38h261.67" stroke="#333" fill="none"/><path d="M340.7 380.88h-.12v-1h.1z" stroke="#333" stroke-width=".05" fill="#333"/><path d="M617.1 380.38l-14.26 4.64v-9.27z" stroke="#333" fill="#333"/><use xlink:href="#v" transform="matrix(1,0,0,1,329.1249999999999,350.1472004064386) translate(0.0049999999999954525 14.4)"/><use xlink:href="#w" transform="matrix(1,0,0,1,329.1249999999999,350.1472004064386) translate(161.85500000000002 14.4)"/><path d="M524.02 400.35h217.4l12 12v48h-229.4z" stroke="#333" fill="#fff"/><path d="M741.42 400.83v11.52h11.53" stroke="#333" fill="#fff"/><use xlink:href="#x" transform="matrix(1,0,0,1,529.0249999999999,405.35185889629787) translate(15.299999999999997 30.025)"/><use xlink:href="#y" transform="matrix(1,0,0,1,529.0249999999999,405.35185889629787) translate(83.85 30.025)"/><path d="M618.22 520.33h-5.13m-5.14 0H597.7m-5.13 0H582.3m-5.12 0h-10.26m-5.13 0h-10.27m-5.13 0h-10.27m-5.13 0h-10.26m-5.13 0h-10.25m-5.13 0h-10.26m-5.13 0h-10.26m-5.14 0h-10.26m-5.13 0h-10.26m-5.13 0H428.4m-5.14 0H413m-5.13 0H397.6m-5.13 0H382.2m-5.12 0h-10.26m-5.13 0h-5.14" stroke="#333" fill="none"/><path d="M618.24 520.83h-.03v-1h.04z" stroke="#333" stroke-width=".05" fill="#333"/><path d="M341.8 520.33l14.26-4.64v9.26z" stroke="#333" fill="#333"/><use xlink:href="#z" transform="matrix(1,0,0,1,412.0249999999999,494.72891157697404) translate(0.0049999999999954525 14.4)"/><path d="M161.07 540.3h306.2l12 12v48h-318.2z" stroke="#333" fill="#fff"/><path d="M467.27 540.77v11.53h11.53" stroke="#333" fill="#fff"/><use xlink:href="#q" transform="matrix(1,0,0,1,166.07499999999996,545.2983151512091) translate(15.400000000000006 30.025)"/><use xlink:href="#r" transform="matrix(1,0,0,1,166.07499999999996,545.2983151512091) translate(74.30000000000001 30.025)"/><use xlink:href="#s" transform="matrix(1,0,0,1,166.07499999999996,545.2983151512091) translate(114.85000000000001 30.025)"/><use xlink:href="#A" transform="matrix(1,0,0,1,166.07499999999996,545.2983151512091) translate(176.85 30.025)"/><use xlink:href="#B" transform="matrix(1,0,0,1,166.07499999999996,545.2983151512091) translate(221.75 30.025)"/><path d="M340.67 660.28h538.47" stroke="#333" fill="none"/><path d="M340.7 660.78h-.1v-1h.1z" stroke="#333" stroke-width=".05" fill="#333"/><path d="M893.9 660.28l-14.26 4.63v-9.26z" stroke="#333" fill="#333"/><use xlink:href="#v" transform="matrix(1,0,0,1,475.5,634.6753678318853) translate(0.0049999999999954525 14.4)"/><use xlink:href="#C" transform="matrix(1,0,0,1,475.5,634.6753678318853) translate(161.85500000000002 14.4)"/><path d="M800.83 680.24h217.4l12 12v48h-229.4z" stroke="#333" fill="#fff"/><path d="M1018.23 680.72v11.52h11.52" stroke="#333" fill="#fff"/><use xlink:href="#x" transform="matrix(1,0,0,1,805.825,685.2447714061202) translate(15.299999999999997 30.025)"/><use xlink:href="#y" transform="matrix(1,0,0,1,805.825,685.2447714061202) translate(83.85 30.025)"/><path d="M895.03 800.22h-5m-4.98 0h-9.97m-4.98 0h-9.98m-4.98 0h-9.97m-5 0h-9.96m-4.98 0h-9.97m-4.98 0h-9.98m-5 0h-9.96m-5 0h-9.96m-5 0h-9.96m-4.98 0h-9.97m-5 0h-9.96m-4.98 0h-9.97m-5 0h-9.96m-5 0h-9.96m-5 0h-9.96m-5 0h-9.96m-4.98 0h-9.98m-4.98 0h-9.97m-4.98 0h-9.97m-5 0h-9.96m-5 0h-9.97m-4.98 0h-9.97m-5 0h-9.96m-5 0h-9.96m-4.98 0h-9.98m-4.98 0h-9.97m-5 0h-9.96m-5 0h-9.97m-4.98 0h-9.98m-4.98 0h-9.98m-5 0h-9.96m-5 0h-9.96m-4.98 0h-9.97m-5 0h-9.96m-5 0h-9.97m-5 0h-4.97" stroke="#333" fill="none"/><path d="M895.05 800.72H895v-1h.05z" stroke="#333" stroke-width=".05" fill="#333"/><path d="M341.8 800.22l14.26-4.63v9.26z" stroke="#333" fill="#333"/><use xlink:href="#z" transform="matrix(1,0,0,1,550.425,774.6218240867963) translate(0.0049999999999954525 14.4)"/><path d="M608.73 828.2a8 8 0 0 1 8-8h84a8 8 0 0 1 8 8v4.94a17.07 17.07 0 0 1-5 12.07 17.07 17.07 0 0 1-12.08 5h-74.92a8 8 0 0 1-8-8z" fill="#fff"/><path d="M708.73 820.2v20l-10 10h-90" stroke="#333" fill="none"/><path d="M608.73 828.2a8 8 0 0 1 8-8h320.8a8 8 0 0 1 8 8v123.96a8 8 0 0 1-8 8h-320.8a8 8 0 0 1-8-8z" stroke="#333" fill="none"/><use xlink:href="#D" transform="matrix(1,0,0,1,616.725,820.2141749803552) translate(13.625 18.6)"/><use xlink:href="#E" transform="matrix(1,0,0,1,620.725,858.2141749803552) translate(12.549999999999997 18.6)"/><use xlink:href="#F" transform="matrix(1,0,0,1,620.725,858.2141749803552) translate(27.549999999999997 18.6)"/><use xlink:href="#G" transform="matrix(1,0,0,1,620.725,858.2141749803552) translate(67.5 18.6)"/><use xlink:href="#H" transform="matrix(1,0,0,1,620.725,858.2141749803552) translate(78.45 18.6)"/><path d="M659.22 900.18h87.5a12 12 0 0 1 12 12v16a12 12 0 0 1-12 12h-71.6" stroke="#333" fill="none"/><path d="M659.24 900.68h-.1v-1h.1z" stroke="#333" stroke-width=".05" fill="#333"/><path d="M660.34 940.17l14.27-4.64v9.27z" stroke="#333" fill="#333"/><use xlink:href="#I" transform="matrix(1,0,0,1,766.7249999999999,909.3759294481488) translate(0.005000000000002558 14.4)"/><use xlink:href="#J" transform="matrix(1,0,0,1,766.7249999999999,909.3759294481488) translate(49.005 14.4)"/><path d="M885.52 988.15a8 8 0 0 1 8-8h84a8 8 0 0 1 8 8v4.93a17.07 17.07 0 0 1-5 12.07 17.07 17.07 0 0 1-12.07 5h-74.93a8 8 0 0 1-8-8z" fill="#fff"/><path d="M985.52 980.15v20l-10 10h-90" stroke="#333" fill="none"/><path d="M885.52 988.15a8 8 0 0 1 8-8h350.8a8 8 0 0 1 8 8v123.95a8 8 0 0 1-8 8h-350.8a8 8 0 0 1-8-8z" stroke="#333" fill="none"/><use xlink:href="#K" transform="matrix(1,0,0,1,893.5249999999999,980.1529821288251) translate(13.625 18.6)"/><use xlink:href="#L" transform="matrix(1,0,0,1,897.5249999999999,1018.1529821288251) translate(12.549999999999997 18.6)"/><use xlink:href="#M" transform="matrix(1,0,0,1,897.5249999999999,1018.1529821288251) translate(27.549999999999997 18.6)"/><use xlink:href="#N" transform="matrix(1,0,0,1,897.5249999999999,1018.1529821288251) translate(67.5 18.6)"/><use xlink:href="#O" transform="matrix(1,0,0,1,897.5249999999999,1018.1529821288251) translate(78.45 18.6)"/><path d="M936.03 1060.12h87.5a12 12 0 0 1 12 12v16a12 12 0 0 1-12 12H951.9" stroke="#333" fill="none"/><path d="M936.04 1060.62h-.08v-1h.08z" stroke="#333" stroke-width=".05" fill="#333"/><path d="M937.14 1100.1l14.27-4.63v9.27z" stroke="#333" fill="#333"/><use xlink:href="#I" transform="matrix(1,0,0,1,1043.525,1069.3147365966188) translate(0.005000000000002558 14.4)"/><use xlink:href="#J" transform="matrix(1,0,0,1,1043.525,1069.3147365966188) translate(49.005 14.4)"/><path d="M608.73 1148.1a8 8 0 0 1 8-8h84a8 8 0 0 1 8 8v4.92a17.07 17.07 0 0 1-5 12.07 17.07 17.07 0 0 1-12.08 5h-74.92a8 8 0 0 1-8-8z" fill="#fff"/><path d="M708.73 1140.1v20l-10 10h-90" stroke="#333" fill="none"/><path d="M608.73 1148.1a8 8 0 0 1 8-8h567.7a8 8 0 0 1 8 8V1352a8 8 0 0 1-8 8h-567.7a8 8 0 0 1-8-8z" stroke="#333" fill="none"/><use xlink:href="#P" transform="matrix(1,0,0,1,616.725,1140.091789277295) translate(27.025 18.6)"/><use xlink:href="#L" transform="matrix(1,0,0,1,620.725,1178.091789277295) translate(7.924999999999997 18.6)"/><use xlink:href="#Q" transform="matrix(1,0,0,1,620.725,1178.091789277295) translate(22.924999999999997 18.6)"/><use xlink:href="#R" transform="matrix(1,0,0,1,620.725,1178.091789277295) translate(44.925 18.6)"/><use xlink:href="#S" transform="matrix(1,0,0,1,620.725,1178.091789277295) translate(87.875 18.6)"/><path d="M659.22 1220.06h87.5a12 12 0 0 1 12 12v16a12 12 0 0 1-12 12h-71.6" stroke="#333" fill="none"/><path d="M659.24 1220.56h-.07v-1h.07z" stroke="#333" stroke-width=".05" fill="#333"/><path d="M660.34 1260.05l14.27-4.64v9.28z" stroke="#333" fill="#333"/><use xlink:href="#T" transform="matrix(1,0,0,1,766.7249999999999,1229.2535437450888) translate(0.005000000000002558 14.4)"/><use xlink:href="#U" transform="matrix(1,0,0,1,766.7249999999999,1229.2535437450888) translate(42.955000000000005 14.4)"/><path d="M936.03 1300.03h87.5a12 12 0 0 1 12 12v16a12 12 0 0 1-12 12H951.9" stroke="#333" fill="none"/><path d="M936.04 1300.53h-.07v-1h.07z" stroke="#333" stroke-width=".05" fill="#333"/><path d="M937.14 1340.02l14.27-4.64v9.27z" stroke="#333" fill="#333"/><use xlink:href="#V" transform="matrix(1,0,0,1,1043.525,1309.2229473193238) translate(0.005000000000002558 14.4)"/><use xlink:href="#W" transform="matrix(1,0,0,1,1043.525,1309.2229473193238) translate(45.005 14.4)"/><path d="M185.8 1379.98h256.75l12 12v48H185.8z" stroke="#333" fill="#fff"/><path d="M442.55 1380.45v11.53h11.52" stroke="#333" fill="#fff"/><use xlink:href="#V" transform="matrix(1,0,0,1,190.79999999999995,1384.977052680676) translate(15.124999999999986 30.025)"/><use xlink:href="#X" transform="matrix(1,0,0,1,190.79999999999995,1384.977052680676) translate(60.124999999999986 30.025)"/><use xlink:href="#Y" transform="matrix(1,0,0,1,190.79999999999995,1384.977052680676) translate(94.12499999999999 30.025)"/><use xlink:href="#Z" transform="matrix(1,0,0,1,190.79999999999995,1384.977052680676) translate(132.02499999999998 30.025)"/><use xlink:href="#aa" transform="matrix(1,0,0,1,190.79999999999995,1384.977052680676) translate(170.97500000000002 30.025)"/><path d="M290.17 1467.97a8 8 0 0 1 8-8h84a8 8 0 0 1 8 8v4.93a17.07 17.07 0 0 1-5 12.07 17.07 17.07 0 0 1-12.07 5h-74.93a8 8 0 0 1-8-8z" fill="#fff"/><path d="M390.17 1459.97v20l-10 10h-90" stroke="#333" fill="none"/><path d="M290.17 1467.97a8 8 0 0 1 8-8h639.35a8 8 0 0 1 8 8v283.88a8 8 0 0 1-8 8H298.17a8 8 0 0 1-8-8z" stroke="#333" fill="none"/><use xlink:href="#ab" transform="matrix(1,0,0,1,298.1749999999999,1459.9694035742345) translate(21 18.6)"/><use xlink:href="#ac" transform="matrix(1,0,0,1,302.1749999999999,1497.9694035742345) translate(13.574999999999989 18.6)"/><path d="M340.67 1559.93h261.67" stroke="#333" fill="none"/><path d="M340.7 1560.43h-.07v-1h.06z" stroke="#333" stroke-width=".05" fill="#333"/><path d="M617.1 1559.93l-14.26 4.64v-9.27z" stroke="#333" fill="#333"/><use xlink:href="#ad" transform="matrix(1,0,0,1,458.99999999999994,1534.3311580420286) translate(0.004999999999999005 14.4)"/><path d="M618.22 1619.9H356.56" stroke="#333" fill="none"/><path d="M618.28 1620.4h-.07v-1h.08z" stroke="#333" stroke-width=".05" fill="#333"/><path d="M341.8 1619.9l14.26-4.63v9.27z" stroke="#333" fill="#333"/><use xlink:href="#ae" transform="matrix(1,0,0,1,424.4749999999999,1594.3082107227046) translate(0.005000000000002558 14.4)"/><path d="M340.67 1679.9h538.47" stroke="#333" fill="none"/><path d="M340.7 1680.4h-.06v-1h.05z" stroke="#333" stroke-width=".05" fill="#333"/><path d="M893.9 1679.9l-14.26 4.62v-9.27z" stroke="#333" fill="#333"/><use xlink:href="#ad" transform="matrix(1,0,0,1,597.4,1654.285263403381) translate(0.004999999999999005 14.4)"/><path d="M895.03 1739.86H356.56" stroke="#333" fill="none"/><path d="M895.1 1740.36h-.1v-1h.1z" stroke="#333" stroke-width=".05" fill="#333"/><path d="M341.8 1739.86l14.26-4.63v9.27z" stroke="#333" fill="#333"/><g><use xlink:href="#ae" transform="matrix(1,0,0,1,562.875,1714.262316084057) translate(0.005000000000002558 14.4)"/></g><path d="M598.73 1787.85a8 8 0 0 1 8-8h84a8 8 0 0 1 8 8v4.93a17.07 17.07 0 0 1-5 12.07 17.07 17.07 0 0 1-12.08 5h-74.92a8 8 0 0 1-8-8z" fill="#fff"/><path d="M698.73 1779.85v20l-10 10h-90" stroke="#333" fill="none"/><path d="M598.73 1787.85a8 8 0 0 1 8-8h647.6a8 8 0 0 1 8 8v523.8a8 8 0 0 1-8 8h-647.6a8 8 0 0 1-8-8z" stroke="#333" fill="none"/><g><use xlink:href="#P" transform="matrix(1,0,0,1,606.725,1779.8470178711746) translate(27.025 18.6)"/></g><g><use xlink:href="#L" transform="matrix(1,0,0,1,610.725,1817.8470178711746) translate(10.899999999999999 18.6)"/><use xlink:href="#Q" transform="matrix(1,0,0,1,610.725,1817.8470178711746) translate(25.9 18.6)"/><use xlink:href="#af" transform="matrix(1,0,0,1,610.725,1817.8470178711746) translate(47.9 18.6)"/><use xlink:href="#S" transform="matrix(1,0,0,1,610.725,1817.8470178711746) translate(84.9 18.6)"/></g><path d="M608.73 1847.82a8 8 0 0 1 8-8h84a8 8 0 0 1 8 8v4.93a17.07 17.07 0 0 1-5 12.07 17.07 17.07 0 0 1-12.08 5h-74.92a8 8 0 0 1-8-8z" fill="#fff"/><path d="M708.73 1839.82v20l-10 10h-90" stroke="#333" fill="none"/><path d="M608.73 1847.82a8 8 0 0 1 8-8h320.8a8 8 0 0 1 8 8v123.95a8 8 0 0 1-8 8h-320.8a8 8 0 0 1-8-8z" stroke="#333" fill="none"/><g><use xlink:href="#ag" transform="matrix(1,0,0,1,616.725,1839.824070551851) translate(26.5 18.6)"/></g><g><use xlink:href="#L" transform="matrix(1,0,0,1,620.725,1877.824070551851) translate(6.974999999999994 18.6)"/><use xlink:href="#ah" transform="matrix(1,0,0,1,620.725,1877.824070551851) translate(21.974999999999994 18.6)"/><use xlink:href="#ai" transform="matrix(1,0,0,1,620.725,1877.824070551851) translate(36.974999999999994 18.6)"/><use xlink:href="#aj" transform="matrix(1,0,0,1,620.725,1877.824070551851) translate(119.825 18.6)"/><use xlink:href="#ak" transform="matrix(1,0,0,1,620.725,1877.824070551851) translate(164.025 18.6)"/></g><path d="M659.22 1919.8h87.5a12 12 0 0 1 12 12v15.98a12 12 0 0 1-12 12h-71.6" stroke="#333" fill="none"/><path d="M659.24 1920.3h-.04v-1h.04z" stroke="#333" stroke-width=".05" fill="#333"/><path d="M660.34 1959.78l14.27-4.64v9.27z" stroke="#333" fill="#333"/><g><use xlink:href="#al" transform="matrix(1,0,0,1,766.725,1928.9858250196446) translate(0.005000000000002558 14.4)"/><use xlink:href="#am" transform="matrix(1,0,0,1,766.725,1928.9858250196446) translate(40.255 14.4)"/><use xlink:href="#an" transform="matrix(1,0,0,1,766.725,1928.9858250196446) translate(58.155 14.4)"/></g><path d="M659.22 2019.76h87.5a12 12 0 0 1 12 12v15.98a12 12 0 0 1-12 12h-71.6" stroke="#333" fill="none"/><path d="M659.24 2020.26h-.04v-1h.04z" stroke="#333" stroke-width=".05" fill="#333"/><path d="M660.34 2059.74l14.27-4.64v9.28z" stroke="#333" fill="#333"/><g><use xlink:href="#ao" transform="matrix(1,0,0,1,766.7249999999999,2028.9475794874386) translate(0.005000000000002558 14.4)"/></g><path d="M885.52 2087.73a8 8 0 0 1 8-8h84a8 8 0 0 1 8 8v4.93a17.07 17.07 0 0 1-5 12.07 17.07 17.07 0 0 1-12.07 5h-74.93a8 8 0 0 1-8-8z" fill="#fff"/><path d="M985.52 2079.73v20l-10 10h-90" stroke="#333" fill="none"/><path d="M885.52 2087.73a8 8 0 0 1 8-8h350.8a8 8 0 0 1 8 8v123.95a8 8 0 0 1-8 8h-350.8a8 8 0 0 1-8-8z" stroke="#333" fill="none"/><g><use xlink:href="#ag" transform="matrix(1,0,0,1,893.5249999999999,2079.732281274556) translate(26.5 18.6)"/></g><g><use xlink:href="#L" transform="matrix(1,0,0,1,897.5249999999999,2117.732281274556) translate(6.974999999999994 18.6)"/><use xlink:href="#ah" transform="matrix(1,0,0,1,897.5249999999999,2117.732281274556) translate(21.974999999999994 18.6)"/><use xlink:href="#ai" transform="matrix(1,0,0,1,897.5249999999999,2117.732281274556) translate(36.974999999999994 18.6)"/><use xlink:href="#aj" transform="matrix(1,0,0,1,897.5249999999999,2117.732281274556) translate(119.825 18.6)"/><use xlink:href="#ak" transform="matrix(1,0,0,1,897.5249999999999,2117.732281274556) translate(164.025 18.6)"/></g><path d="M936.03 2159.7h87.5a12 12 0 0 1 12 12v16a12 12 0 0 1-12 12H951.9" stroke="#333" fill="none"/><path d="M936.04 2160.2H936v-1h.04z" stroke="#333" stroke-width=".05" fill="#333"/><path d="M937.14 2199.7l14.27-4.65v9.27z" stroke="#333" fill="#333"/><g><use xlink:href="#al" transform="matrix(1,0,0,1,1043.525,2168.894035742349) translate(0.005000000000002558 14.4)"/><use xlink:href="#ap" transform="matrix(1,0,0,1,1043.525,2168.894035742349) translate(40.255 14.4)"/><use xlink:href="#an" transform="matrix(1,0,0,1,1043.525,2168.894035742349) translate(68.155 14.4)"/></g><path d="M936.03 2259.66h87.5a12 12 0 0 1 12 12v16a12 12 0 0 1-12 12H951.9" stroke="#333" fill="none"/><path d="M936.04 2260.16H936v-1h.04z" stroke="#333" stroke-width=".05" fill="#333"/><path d="M937.14 2299.65l14.27-4.64v9.28z" stroke="#333" fill="#333"/><g><use xlink:href="#ao" transform="matrix(1,0,0,1,1043.525,2268.855790210143) translate(0.005000000000002558 14.4)"/></g><path d="M245.27 2339.6h137.8l12 12v48h-149.8z" stroke="#333" fill="#fff"/><path d="M383.07 2340.1v11.5h11.53" stroke="#333" fill="#fff"/><g><use xlink:href="#aq" transform="matrix(1,0,0,1,250.27499999999995,2344.6098955714956) translate(15.099999999999994 30.025)"/><use xlink:href="#ar" transform="matrix(1,0,0,1,250.27499999999995,2344.6098955714956) translate(72 30.025)"/></g><path d="M340.67 2459.6h261.67" stroke="#333" fill="none"/><path d="M340.7 2460.1h-.03v-1h.02z" stroke="#333" stroke-width=".05" fill="#333"/><path d="M617.1 2459.6l-14.26 4.62v-9.27z" stroke="#333" fill="#333"/><g><use xlink:href="#as" transform="matrix(1,0,0,1,447.54999999999995,2433.9869482521717) translate(0.004999999999999005 14.4)"/></g><path d="M340.67 2519.56h538.47" stroke="#333" fill="none"/><path d="M340.7 2520.06h-.03v-1h.02z" stroke="#333" stroke-width=".05" fill="#333"/><path d="M893.9 2519.56l-14.26 4.64v-9.27z" stroke="#333" fill="#333"/><g><use xlink:href="#as" transform="matrix(1,0,0,1,585.95,2493.9640009328477) translate(0.004999999999999005 14.4)"/></g><defs><path fill="#333" d="M141-36C126-15 110 5 73 4 37 3 15-17 15-53c-1-64 63-63 125-63 3-35-9-54-41-54-24 1-41 7-42 31l-33-3c5-37 33-52 76-52 45 0 72 20 72 64v82c-1 20 7 32 28 27v20c-31 9-61-2-59-35zM48-53c0 20 12 33 32 33 41-3 63-29 60-74-43 2-92-5-92 41" id="at"/><path fill="#333" d="M115-194c55 1 70 41 70 98S169 2 115 4C84 4 66-9 55-30l1 105H24l-1-265h31l2 30c10-21 28-34 59-34zm-8 174c40 0 45-34 45-75s-6-73-45-74c-42 0-51 32-51 76 0 43 10 73 51 73" id="au"/><path fill="#333" d="M33-154v-36h34v36H33zM33 0v-36h34V0H33" id="av"/><g id="a"><use transform="matrix(0.05,0,0,0.05,0,0)" xlink:href="#at"/><use transform="matrix(0.05,0,0,0.05,10,0)" xlink:href="#au"/><use transform="matrix(0.05,0,0,0.05,20,0)" xlink:href="#au"/><use transform="matrix(0.05,0,0,0.05,30,0)" xlink:href="#av"/></g><path fill="#333" d="M30 0v-248h33v221h125V0H30" id="aw"/><path fill="#333" d="M24-231v-30h32v30H24zM24 0v-190h32V0H24" id="ax"/><path fill="#333" d="M117-194c89-4 53 116 60 194h-32v-121c0-31-8-49-39-48C34-167 62-67 57 0H25l-1-190h30c1 10-1 24 2 32 11-22 29-35 61-36" id="ay"/><path fill="#333" d="M143 0L79-87 56-68V0H24v-261h32v163l83-92h37l-77 82L181 0h-38" id="az"/><g id="b"><use transform="matrix(0.05,0,0,0.05,0,0)" xlink:href="#aw"/><use transform="matrix(0.05,0,0,0.05,10,0)" xlink:href="#ax"/><use transform="matrix(0.05,0,0,0.05,13.949999999999998,0)" xlink:href="#ay"/><use transform="matrix(0.05,0,0,0.05,23.95,0)" xlink:href="#az"/></g><path fill="#333" d="M140-251c81 0 123 46 123 126C263-53 228-8 163 1c7 30 30 48 69 40v23c-55 16-95-15-103-61C56-3 17-48 17-125c0-80 42-126 123-126zm0 227c63 0 89-41 89-101s-29-99-89-99c-61 0-89 39-89 99S79-25 140-24" id="aA"/><path fill="#333" d="M84 4C-5 8 30-112 23-190h32v120c0 31 7 50 39 49 72-2 45-101 50-169h31l1 190h-30c-1-10 1-25-2-33-11 22-28 36-60 37" id="aB"/><path fill="#333" d="M24 0v-261h32V0H24" id="aC"/><g id="c"><use transform="matrix(0.05,0,0,0.05,0,0)" xlink:href="#aA"/><use transform="matrix(0.05,0,0,0.05,14,0)" xlink:href="#aB"/><use transform="matrix(0.05,0,0,0.05,24,0)" xlink:href="#at"/><use transform="matrix(0.05,0,0,0.05,34,0)" xlink:href="#aC"/></g><path fill="#333" d="M140-251c81 0 123 46 123 126C263-46 219 4 140 4 59 4 17-45 17-125s42-126 123-126zm0 227c63 0 89-41 89-101s-29-99-89-99c-61 0-89 39-89 99S79-25 140-24" id="aD"/><path fill="#333" d="M114-163C36-179 61-72 57 0H25l-1-190h30c1 12-1 29 2 39 6-27 23-49 58-41v29" id="aE"/><path fill="#333" d="M96-169c-40 0-48 33-48 73s9 75 48 75c24 0 41-14 43-38l32 2c-6 37-31 61-74 61-59 0-76-41-82-99-10-93 101-131 147-64 4 7 5 14 7 22l-32 3c-4-21-16-35-41-35" id="aF"/><path fill="#333" d="M106-169C34-169 62-67 57 0H25v-261h32l-1 103c12-21 28-36 61-36 89 0 53 116 60 194h-32v-121c2-32-8-49-39-48" id="aG"/><path fill="#333" d="M100-194c63 0 86 42 84 106H49c0 40 14 67 53 68 26 1 43-12 49-29l28 8c-11 28-37 45-77 45C44 4 14-33 15-96c1-61 26-98 85-98zm52 81c6-60-76-77-97-28-3 7-6 17-6 28h103" id="aH"/><path fill="#333" d="M135-143c-3-34-86-38-87 0 15 53 115 12 119 90S17 21 10-45l28-5c4 36 97 45 98 0-10-56-113-15-118-90-4-57 82-63 122-42 12 7 21 19 24 35" id="aI"/><path fill="#333" d="M59-47c-2 24 18 29 38 22v24C64 9 27 4 27-40v-127H5v-23h24l9-43h21v43h35v23H59v120" id="aJ"/><path fill="#333" d="M100-194c62-1 85 37 85 99 1 63-27 99-86 99S16-35 15-95c0-66 28-99 85-99zM99-20c44 1 53-31 53-75 0-43-8-75-51-75s-53 32-53 75 10 74 51 75" id="aK"/><g id="d"><use transform="matrix(0.05,0,0,0.05,0,0)" xlink:href="#aD"/><use transform="matrix(0.05,0,0,0.05,14,0)" xlink:href="#aE"/><use transform="matrix(0.05,0,0,0.05,19.95,0)" xlink:href="#aF"/><use transform="matrix(0.05,0,0,0.05,28.950000000000003,0)" xlink:href="#aG"/><use transform="matrix(0.05,0,0,0.05,38.95,0)" xlink:href="#aH"/><use transform="matrix(0.05,0,0,0.05,48.95,0)" xlink:href="#aI"/><use transform="matrix(0.05,0,0,0.05,57.95,0)" xlink:href="#aJ"/><use transform="matrix(0.05,0,0,0.05,62.95,0)" xlink:href="#aE"/><use transform="matrix(0.05,0,0,0.05,68.9,0)" xlink:href="#at"/><use transform="matrix(0.05,0,0,0.05,78.9,0)" xlink:href="#aJ"/><use transform="matrix(0.05,0,0,0.05,83.9,0)" xlink:href="#aK"/><use transform="matrix(0.05,0,0,0.05,93.9,0)" xlink:href="#aE"/></g><g id="e"><use transform="matrix(0.05,0,0,0.05,0,0)" xlink:href="#at"/><use transform="matrix(0.05,0,0,0.05,10,0)" xlink:href="#au"/><use transform="matrix(0.05,0,0,0.05,20,0)" xlink:href="#au"/><use transform="matrix(0.05,0,0,0.05,30,0)" xlink:href="#av"/></g><g id="f"><use transform="matrix(0.05,0,0,0.05,0,0)" xlink:href="#aw"/><use transform="matrix(0.05,0,0,0.05,10,0)" xlink:href="#ax"/><use transform="matrix(0.05,0,0,0.05,13.949999999999998,0)" xlink:href="#ay"/><use transform="matrix(0.05,0,0,0.05,23.95,0)" xlink:href="#az"/></g><g id="g"><use transform="matrix(0.05,0,0,0.05,0,0)" xlink:href="#aA"/><use transform="matrix(0.05,0,0,0.05,14,0)" xlink:href="#aB"/><use transform="matrix(0.05,0,0,0.05,24,0)" xlink:href="#at"/><use transform="matrix(0.05,0,0,0.05,34,0)" xlink:href="#aC"/></g><g id="h"><use transform="matrix(0.05,0,0,0.05,0,0)" xlink:href="#aD"/><use transform="matrix(0.05,0,0,0.05,14,0)" xlink:href="#aE"/><use transform="matrix(0.05,0,0,0.05,19.95,0)" xlink:href="#aF"/><use transform="matrix(0.05,0,0,0.05,28.950000000000003,0)" xlink:href="#aG"/><use transform="matrix(0.05,0,0,0.05,38.95,0)" xlink:href="#aH"/><use transform="matrix(0.05,0,0,0.05,48.95,0)" xlink:href="#aI"/><use transform="matrix(0.05,0,0,0.05,57.95,0)" xlink:href="#aJ"/><use transform="matrix(0.05,0,0,0.05,62.95,0)" xlink:href="#aE"/><use transform="matrix(0.05,0,0,0.05,68.9,0)" xlink:href="#at"/><use transform="matrix(0.05,0,0,0.05,78.9,0)" xlink:href="#aJ"/><use transform="matrix(0.05,0,0,0.05,83.9,0)" xlink:href="#aK"/><use transform="matrix(0.05,0,0,0.05,93.9,0)" xlink:href="#aE"/></g><path fill="#333" d="M177-190C167-65 218 103 67 71c-23-6-38-20-44-43l32-5c15 47 100 32 89-28v-30C133-14 115 1 83 1 29 1 15-40 15-95c0-56 16-97 71-98 29-1 48 16 59 35 1-10 0-23 2-32h30zM94-22c36 0 50-32 50-73 0-42-14-75-50-75-39 0-46 34-46 75s6 73 46 73" id="aL"/><g id="i"><use transform="matrix(0.05,0,0,0.05,0,0)" xlink:href="#aL"/><use transform="matrix(0.05,0,0,0.05,10,0)" xlink:href="#aH"/><use transform="matrix(0.05,0,0,0.05,20,0)" xlink:href="#ay"/><use transform="matrix(0.05,0,0,0.05,30,0)" xlink:href="#av"/></g><g id="j"><use transform="matrix(0.05,0,0,0.05,0,0)" xlink:href="#aA"/><use transform="matrix(0.05,0,0,0.05,14,0)" xlink:href="#aB"/><use transform="matrix(0.05,0,0,0.05,24,0)" xlink:href="#at"/><use transform="matrix(0.05,0,0,0.05,34,0)" xlink:href="#aC"/></g><path fill="#333" d="M185-189c-5-48-123-54-124 2 14 75 158 14 163 119 3 78-121 87-175 55-17-10-28-26-33-46l33-7c5 56 141 63 141-1 0-78-155-14-162-118-5-82 145-84 179-34 5 7 8 16 11 25" id="aM"/><path fill="#333" d="M108 0H70L1-190h34L89-25l56-165h34" id="aN"/><g id="k"><use transform="matrix(0.05,0,0,0.05,0,0)" xlink:href="#aM"/><use transform="matrix(0.05,0,0,0.05,12,0)" xlink:href="#aH"/><use transform="matrix(0.05,0,0,0.05,22,0)" xlink:href="#aE"/><use transform="matrix(0.05,0,0,0.05,27.950000000000003,0)" xlink:href="#aN"/><use transform="matrix(0.05,0,0,0.05,36.95,0)" xlink:href="#ax"/><use transform="matrix(0.05,0,0,0.05,40.900000000000006,0)" xlink:href="#aF"/><use transform="matrix(0.05,0,0,0.05,49.900000000000006,0)" xlink:href="#aH"/></g><g id="l"><use transform="matrix(0.05,0,0,0.05,0,0)" xlink:href="#aL"/><use transform="matrix(0.05,0,0,0.05,10,0)" xlink:href="#aH"/><use transform="matrix(0.05,0,0,0.05,20,0)" xlink:href="#ay"/><use transform="matrix(0.05,0,0,0.05,30,0)" xlink:href="#av"/></g><g id="m"><use transform="matrix(0.05,0,0,0.05,0,0)" xlink:href="#aA"/><use transform="matrix(0.05,0,0,0.05,14,0)" xlink:href="#aB"/><use transform="matrix(0.05,0,0,0.05,24,0)" xlink:href="#at"/><use transform="matrix(0.05,0,0,0.05,34,0)" xlink:href="#aC"/></g><g id="n"><use transform="matrix(0.05,0,0,0.05,0,0)" xlink:href="#aM"/><use transform="matrix(0.05,0,0,0.05,12,0)" xlink:href="#aH"/><use transform="matrix(0.05,0,0,0.05,22,0)" xlink:href="#aE"/><use transform="matrix(0.05,0,0,0.05,27.950000000000003,0)" xlink:href="#aN"/><use transform="matrix(0.05,0,0,0.05,36.95,0)" xlink:href="#ax"/><use transform="matrix(0.05,0,0,0.05,40.900000000000006,0)" xlink:href="#aF"/><use transform="matrix(0.05,0,0,0.05,49.900000000000006,0)" xlink:href="#aH"/></g><path fill="#333" d="M101-234c-31-9-42 10-38 44h38v23H63V0H32v-167H5v-23h27c-7-52 17-82 69-68v24" id="aO"/><g id="o"><use transform="matrix(0.05,0,0,0.05,0,0)" xlink:href="#aE"/><use transform="matrix(0.05,0,0,0.05,5.95,0)" xlink:href="#aH"/><use transform="matrix(0.05,0,0,0.05,15.949999999999998,0)" xlink:href="#aO"/><use transform="matrix(0.05,0,0,0.05,20.95,0)" xlink:href="#aC"/><use transform="matrix(0.05,0,0,0.05,24.9,0)" xlink:href="#aH"/><use transform="matrix(0.05,0,0,0.05,34.9,0)" xlink:href="#aF"/><use transform="matrix(0.05,0,0,0.05,43.9,0)" xlink:href="#aJ"/><use transform="matrix(0.05,0,0,0.05,48.9,0)" xlink:href="#av"/></g><g id="p"><use transform="matrix(0.05,0,0,0.05,0,0)" xlink:href="#aE"/><use transform="matrix(0.05,0,0,0.05,5.95,0)" xlink:href="#aH"/><use transform="matrix(0.05,0,0,0.05,15.949999999999998,0)" xlink:href="#aO"/><use transform="matrix(0.05,0,0,0.05,20.95,0)" xlink:href="#aC"/><use transform="matrix(0.05,0,0,0.05,24.9,0)" xlink:href="#aH"/><use transform="matrix(0.05,0,0,0.05,34.9,0)" xlink:href="#aF"/><use transform="matrix(0.05,0,0,0.05,43.9,0)" xlink:href="#aJ"/><use transform="matrix(0.05,0,0,0.05,48.9,0)" xlink:href="#av"/></g><path fill="#333" d="M212-179c-10-28-35-45-73-45-59 0-87 40-87 99 0 60 29 101 89 101 43 0 62-24 78-52l27 14C228-24 195 4 139 4 59 4 22-46 18-125c-6-104 99-153 187-111 19 9 31 26 39 46" id="aP"/><g id="q"><use transform="matrix(0.05,0,0,0.05,0,0)" xlink:href="#aP"/><use transform="matrix(0.05,0,0,0.05,12.950000000000001,0)" xlink:href="#aE"/><use transform="matrix(0.05,0,0,0.05,18.900000000000002,0)" xlink:href="#aH"/><use transform="matrix(0.05,0,0,0.05,28.900000000000002,0)" xlink:href="#at"/><use transform="matrix(0.05,0,0,0.05,38.900000000000006,0)" xlink:href="#aJ"/><use transform="matrix(0.05,0,0,0.05,43.900000000000006,0)" xlink:href="#aH"/></g><path fill="#333" d="M190 0L58-211 59 0H30v-248h39L202-35l-2-213h31V0h-41" id="aQ"/><path fill="#333" d="M127-220V0H93v-220H8v-28h204v28h-85" id="aR"/><path fill="#333" d="M30-248c87 1 191-15 191 75 0 78-77 80-158 76V0H30v-248zm33 125c57 0 124 11 124-50 0-59-68-47-124-48v98" id="aS"/><g id="r"><use transform="matrix(0.05,0,0,0.05,0,0)" xlink:href="#aQ"/><use transform="matrix(0.05,0,0,0.05,12.950000000000001,0)" xlink:href="#aR"/><use transform="matrix(0.05,0,0,0.05,23.900000000000002,0)" xlink:href="#aS"/></g><path fill="#333" d="M179-190L93 31C79 59 56 82 12 73V49c39 6 53-20 64-50L1-190h34L92-34l54-156h33" id="aT"/><path fill="#333" d="M85-194c31 0 48 13 60 33l-1-100h32l1 261h-30c-2-10 0-23-3-31C134-8 116 4 85 4 32 4 16-35 15-94c0-66 23-100 70-100zm9 24c-40 0-46 34-46 75 0 40 6 74 45 74 42 0 51-32 51-76 0-42-9-74-50-73" id="aU"/><g id="s"><use transform="matrix(0.05,0,0,0.05,0,0)" xlink:href="#aI"/><use transform="matrix(0.05,0,0,0.05,9,0)" xlink:href="#aT"/><use transform="matrix(0.05,0,0,0.05,18,0)" xlink:href="#ay"/><use transform="matrix(0.05,0,0,0.05,28,0)" xlink:href="#aF"/><use transform="matrix(0.05,0,0,0.05,37,0)" xlink:href="#aH"/><use transform="matrix(0.05,0,0,0.05,47,0)" xlink:href="#aU"/></g><g id="t"><use transform="matrix(0.05,0,0,0.05,0,0)" xlink:href="#aS"/><use transform="matrix(0.05,0,0,0.05,12,0)" xlink:href="#at"/><use transform="matrix(0.05,0,0,0.05,22,0)" xlink:href="#aF"/><use transform="matrix(0.05,0,0,0.05,31,0)" xlink:href="#az"/><use transform="matrix(0.05,0,0,0.05,40,0)" xlink:href="#aH"/><use transform="matrix(0.05,0,0,0.05,50,0)" xlink:href="#aJ"/></g><path fill="#333" d="M33 0v-248h34V0H33" id="aV"/><path fill="#333" d="M24-231v-30h32v30H24zM-9 49c24 4 33-6 33-30v-209h32V24c2 40-23 58-65 49V49" id="aW"/><g id="u"><use transform="matrix(0.05,0,0,0.05,0,0)" xlink:href="#aV"/><use transform="matrix(0.05,0,0,0.05,5,0)" xlink:href="#ay"/><use transform="matrix(0.05,0,0,0.05,15,0)" xlink:href="#aW"/><use transform="matrix(0.05,0,0,0.05,18.95,0)" xlink:href="#aH"/><use transform="matrix(0.05,0,0,0.05,28.950000000000003,0)" xlink:href="#aF"/><use transform="matrix(0.05,0,0,0.05,37.95,0)" xlink:href="#aJ"/><use transform="matrix(0.05,0,0,0.05,42.95,0)" xlink:href="#aK"/><use transform="matrix(0.05,0,0,0.05,52.95,0)" xlink:href="#aE"/></g><path fill="#333" d="M87 75C49 33 22-17 22-94c0-76 28-126 65-167h31c-38 41-64 92-64 168S80 34 118 75H87" id="aX"/><path fill="#333" d="M-5 72V49h209v23H-5" id="aY"/><path fill="#333" d="M68-38c1 34 0 65-14 84H32c9-13 17-26 17-46H33v-38h35" id="aZ"/><g id="v"><use transform="matrix(0.05,0,0,0.05,0,0)" xlink:href="#aP"/><use transform="matrix(0.05,0,0,0.05,12.950000000000001,0)" xlink:href="#aE"/><use transform="matrix(0.05,0,0,0.05,18.900000000000002,0)" xlink:href="#aH"/><use transform="matrix(0.05,0,0,0.05,28.900000000000002,0)" xlink:href="#at"/><use transform="matrix(0.05,0,0,0.05,38.900000000000006,0)" xlink:href="#aJ"/><use transform="matrix(0.05,0,0,0.05,43.900000000000006,0)" xlink:href="#aH"/><use transform="matrix(0.05,0,0,0.05,53.900000000000006,0)" xlink:href="#aX"/><use transform="matrix(0.05,0,0,0.05,59.85,0)" xlink:href="#ay"/><use transform="matrix(0.05,0,0,0.05,69.85000000000001,0)" xlink:href="#aJ"/><use transform="matrix(0.05,0,0,0.05,74.85000000000001,0)" xlink:href="#au"/><use transform="matrix(0.05,0,0,0.05,84.85000000000001,0)" xlink:href="#aY"/><use transform="matrix(0.05,0,0,0.05,94.85000000000001,0)" xlink:href="#aI"/><use transform="matrix(0.05,0,0,0.05,103.85000000000001,0)" xlink:href="#aT"/><use transform="matrix(0.05,0,0,0.05,112.85000000000001,0)" xlink:href="#ay"/><use transform="matrix(0.05,0,0,0.05,122.85000000000001,0)" xlink:href="#aF"/><use transform="matrix(0.05,0,0,0.05,131.85000000000002,0)" xlink:href="#aH"/><use transform="matrix(0.05,0,0,0.05,141.85000000000002,0)" xlink:href="#aU"/><use transform="matrix(0.05,0,0,0.05,151.85000000000002,0)" xlink:href="#aZ"/></g><path fill="#333" d="M33-261c38 41 65 92 65 168S71 34 33 75H2C39 34 66-17 66-93S39-220 2-261h31" id="ba"/><g id="w"><use transform="matrix(0.05,0,0,0.05,0,0)" xlink:href="#au"/><use transform="matrix(0.05,0,0,0.05,10,0)" xlink:href="#at"/><use transform="matrix(0.05,0,0,0.05,20,0)" xlink:href="#aF"/><use transform="matrix(0.05,0,0,0.05,29,0)" xlink:href="#az"/><use transform="matrix(0.05,0,0,0.05,38,0)" xlink:href="#aH"/><use transform="matrix(0.05,0,0,0.05,48,0)" xlink:href="#aJ"/><use transform="matrix(0.05,0,0,0.05,53,0)" xlink:href="#aY"/><use transform="matrix(0.05,0,0,0.05,63,0)" xlink:href="#ax"/><use transform="matrix(0.05,0,0,0.05,66.95,0)" xlink:href="#ay"/><use transform="matrix(0.05,0,0,0.05,76.95,0)" xlink:href="#aW"/><use transform="matrix(0.05,0,0,0.05,80.9,0)" xlink:href="#aH"/><use transform="matrix(0.05,0,0,0.05,90.9,0)" xlink:href="#aF"/><use transform="matrix(0.05,0,0,0.05,99.9,0)" xlink:href="#aJ"/><use transform="matrix(0.05,0,0,0.05,104.9,0)" xlink:href="#aK"/><use transform="matrix(0.05,0,0,0.05,114.9,0)" xlink:href="#aE"/><use transform="matrix(0.05,0,0,0.05,120.85000000000001,0)" xlink:href="#ba"/></g><path fill="#333" d="M137 0h-34L2-248h35l83 218 83-218h36" id="bb"/><g id="x"><use transform="matrix(0.05,0,0,0.05,0,0)" xlink:href="#bb"/><use transform="matrix(0.05,0,0,0.05,10.65,0)" xlink:href="#at"/><use transform="matrix(0.05,0,0,0.05,20.65,0)" xlink:href="#aC"/><use transform="matrix(0.05,0,0,0.05,24.599999999999998,0)" xlink:href="#ax"/><use transform="matrix(0.05,0,0,0.05,28.549999999999997,0)" xlink:href="#aU"/><use transform="matrix(0.05,0,0,0.05,38.55,0)" xlink:href="#at"/><use transform="matrix(0.05,0,0,0.05,48.55,0)" xlink:href="#aJ"/><use transform="matrix(0.05,0,0,0.05,53.54999999999999,0)" xlink:href="#aH"/></g><path fill="#333" d="M233-177c-1 41-23 64-60 70L243 0h-38l-65-103H63V0H30v-248c88 3 205-21 203 71zM63-129c60-2 137 13 137-47 0-61-80-42-137-45v92" id="bc"/><path fill="#333" d="M145-31C134-9 116 4 85 4 32 4 16-35 15-94c0-59 17-99 70-100 32-1 48 14 60 33 0-11-1-24 2-32h30l-1 268h-32zM93-21c41 0 51-33 51-76s-8-73-50-73c-40 0-46 35-46 75s5 74 45 74" id="bd"/><g id="y"><use transform="matrix(0.05,0,0,0.05,0,0)" xlink:href="#aP"/><use transform="matrix(0.05,0,0,0.05,12.950000000000001,0)" xlink:href="#aE"/><use transform="matrix(0.05,0,0,0.05,18.900000000000002,0)" xlink:href="#aH"/><use transform="matrix(0.05,0,0,0.05,28.900000000000002,0)" xlink:href="#at"/><use transform="matrix(0.05,0,0,0.05,38.900000000000006,0)" xlink:href="#aJ"/><use transform="matrix(0.05,0,0,0.05,43.900000000000006,0)" xlink:href="#aH"/><use transform="matrix(0.05,0,0,0.05,53.900000000000006,0)" xlink:href="#bc"/><use transform="matrix(0.05,0,0,0.05,66.85000000000001,0)" xlink:href="#aH"/><use transform="matrix(0.05,0,0,0.05,76.85000000000001,0)" xlink:href="#bd"/><use transform="matrix(0.05,0,0,0.05,86.85000000000001,0)" xlink:href="#aB"/><use transform="matrix(0.05,0,0,0.05,96.85000000000001,0)" xlink:href="#aH"/><use transform="matrix(0.05,0,0,0.05,106.85000000000001,0)" xlink:href="#aI"/><use transform="matrix(0.05,0,0,0.05,115.85000000000001,0)" xlink:href="#aJ"/></g><g id="z"><use transform="matrix(0.05,0,0,0.05,0,0)" xlink:href="#aP"/><use transform="matrix(0.05,0,0,0.05,12.950000000000001,0)" xlink:href="#aE"/><use transform="matrix(0.05,0,0,0.05,18.900000000000002,0)" xlink:href="#aH"/><use transform="matrix(0.05,0,0,0.05,28.900000000000002,0)" xlink:href="#at"/><use transform="matrix(0.05,0,0,0.05,38.900000000000006,0)" xlink:href="#aJ"/><use transform="matrix(0.05,0,0,0.05,43.900000000000006,0)" xlink:href="#aH"/><use transform="matrix(0.05,0,0,0.05,53.900000000000006,0)" xlink:href="#bc"/><use transform="matrix(0.05,0,0,0.05,66.85000000000001,0)" xlink:href="#aH"/><use transform="matrix(0.05,0,0,0.05,76.85000000000001,0)" xlink:href="#aI"/><use transform="matrix(0.05,0,0,0.05,85.85000000000001,0)" xlink:href="#au"/><use transform="matrix(0.05,0,0,0.05,95.85000000000001,0)" xlink:href="#aK"/><use transform="matrix(0.05,0,0,0.05,105.85000000000001,0)" xlink:href="#ay"/><use transform="matrix(0.05,0,0,0.05,115.85000000000001,0)" xlink:href="#aI"/><use transform="matrix(0.05,0,0,0.05,124.85000000000001,0)" xlink:href="#aH"/></g><path fill="#333" d="M240 0l2-218c-23 76-54 145-80 218h-23L58-218 59 0H30v-248h44l77 211c21-75 51-140 76-211h43V0h-30" id="be"/><path fill="#333" d="M30-248c118-7 216 8 213 122C240-48 200 0 122 0H30v-248zM63-27c89 8 146-16 146-99s-60-101-146-95v194" id="bf"/><g id="A"><use transform="matrix(0.05,0,0,0.05,0,0)" xlink:href="#aS"/><use transform="matrix(0.05,0,0,0.05,12,0)" xlink:href="#be"/><use transform="matrix(0.05,0,0,0.05,26.950000000000003,0)" xlink:href="#bf"/></g><g id="B"><use transform="matrix(0.05,0,0,0.05,0,0)" xlink:href="#bc"/><use transform="matrix(0.05,0,0,0.05,12.950000000000001,0)" xlink:href="#aH"/><use transform="matrix(0.05,0,0,0.05,22.950000000000003,0)" xlink:href="#aO"/><use transform="matrix(0.05,0,0,0.05,27.950000000000003,0)" xlink:href="#aC"/><use transform="matrix(0.05,0,0,0.05,31.900000000000002,0)" xlink:href="#aH"/><use transform="matrix(0.05,0,0,0.05,41.900000000000006,0)" xlink:href="#aF"/><use transform="matrix(0.05,0,0,0.05,50.900000000000006,0)" xlink:href="#aJ"/><use transform="matrix(0.05,0,0,0.05,55.900000000000006,0)" xlink:href="#aK"/><use transform="matrix(0.05,0,0,0.05,65.9,0)" xlink:href="#aE"/></g><path fill="#333" d="M210-169c-67 3-38 105-44 169h-31v-121c0-29-5-50-35-48C34-165 62-65 56 0H25l-1-190h30c1 10-1 24 2 32 10-44 99-50 107 0 11-21 27-35 58-36 85-2 47 119 55 194h-31v-121c0-29-5-49-35-48" id="bg"/><path fill="#333" d="M115-194c53 0 69 39 70 98 0 66-23 100-70 100C84 3 66-7 56-30L54 0H23l1-261h32v101c10-23 28-34 59-34zm-8 174c40 0 45-34 45-75 0-40-5-75-45-74-42 0-51 32-51 76 0 43 10 73 51 73" id="bh"/><g id="C"><use transform="matrix(0.05,0,0,0.05,0,0)" xlink:href="#au"/><use transform="matrix(0.05,0,0,0.05,10,0)" xlink:href="#bg"/><use transform="matrix(0.05,0,0,0.05,24.950000000000003,0)" xlink:href="#aU"/><use transform="matrix(0.05,0,0,0.05,34.95,0)" xlink:href="#aY"/><use transform="matrix(0.05,0,0,0.05,44.95,0)" xlink:href="#aC"/><use transform="matrix(0.05,0,0,0.05,48.900000000000006,0)" xlink:href="#aK"/><use transform="matrix(0.05,0,0,0.05,58.900000000000006,0)" xlink:href="#aK"/><use transform="matrix(0.05,0,0,0.05,68.9,0)" xlink:href="#au"/><use transform="matrix(0.05,0,0,0.05,78.9,0)" xlink:href="#bh"/><use transform="matrix(0.05,0,0,0.05,88.9,0)" xlink:href="#at"/><use transform="matrix(0.05,0,0,0.05,98.9,0)" xlink:href="#aF"/><use transform="matrix(0.05,0,0,0.05,107.9,0)" xlink:href="#az"/><use transform="matrix(0.05,0,0,0.05,116.9,0)" xlink:href="#ba"/></g><g id="D"><use transform="matrix(0.05,0,0,0.05,0,0)" xlink:href="#aP"/><use transform="matrix(0.05,0,0,0.05,12.950000000000001,0)" xlink:href="#aE"/><use transform="matrix(0.05,0,0,0.05,18.900000000000002,0)" xlink:href="#ax"/><use transform="matrix(0.05,0,0,0.05,22.85,0)" xlink:href="#aJ"/><use transform="matrix(0.05,0,0,0.05,27.85,0)" xlink:href="#ax"/><use transform="matrix(0.05,0,0,0.05,31.8,0)" xlink:href="#aF"/><use transform="matrix(0.05,0,0,0.05,40.8,0)" xlink:href="#at"/><use transform="matrix(0.05,0,0,0.05,50.8,0)" xlink:href="#aC"/></g><path fill="#333" d="M26 75v-336h71v23H56V52h41v23H26" id="bi"/><g id="E"><use transform="matrix(0.05,0,0,0.05,0,0)" xlink:href="#bi"/><use transform="matrix(0.05,0,0,0.05,5,0)" xlink:href="#av"/></g><g id="F"><use transform="matrix(0.05,0,0,0.05,0,0)" xlink:href="#aI"/><use transform="matrix(0.05,0,0,0.05,9,0)" xlink:href="#aJ"/><use transform="matrix(0.05,0,0,0.05,14,0)" xlink:href="#at"/><use transform="matrix(0.05,0,0,0.05,24,0)" xlink:href="#aE"/><use transform="matrix(0.05,0,0,0.05,29.950000000000003,0)" xlink:href="#aJ"/></g><path fill="#333" d="M16-82v-28h88v28H16" id="bj"/><use transform="matrix(0.05,0,0,0.05,0,0)" xlink:href="#bj" id="G"/><path fill="#333" d="M3 75V52h41v-290H3v-23h71V75H3" id="bk"/><g id="H"><use transform="matrix(0.05,0,0,0.05,0,0)" xlink:href="#aI"/><use transform="matrix(0.05,0,0,0.05,9,0)" xlink:href="#aH"/><use transform="matrix(0.05,0,0,0.05,19,0)" xlink:href="#aJ"/><use transform="matrix(0.05,0,0,0.05,24,0)" xlink:href="#aB"/><use transform="matrix(0.05,0,0,0.05,34,0)" xlink:href="#au"/><use transform="matrix(0.05,0,0,0.05,44,0)" xlink:href="#bk"/></g><g id="I"><use transform="matrix(0.05,0,0,0.05,0,0)" xlink:href="#aI"/><use transform="matrix(0.05,0,0,0.05,9,0)" xlink:href="#aH"/><use transform="matrix(0.05,0,0,0.05,19,0)" xlink:href="#aJ"/><use transform="matrix(0.05,0,0,0.05,24,0)" xlink:href="#aB"/><use transform="matrix(0.05,0,0,0.05,34,0)" xlink:href="#au"/></g><g id="J"><use transform="matrix(0.05,0,0,0.05,0,0)" xlink:href="#ax"/><use transform="matrix(0.05,0,0,0.05,3.95,0)" xlink:href="#ay"/><use transform="matrix(0.05,0,0,0.05,13.949999999999998,0)" xlink:href="#aJ"/><use transform="matrix(0.05,0,0,0.05,18.95,0)" xlink:href="#aH"/><use transform="matrix(0.05,0,0,0.05,28.950000000000003,0)" xlink:href="#aE"/><use transform="matrix(0.05,0,0,0.05,34.9,0)" xlink:href="#aO"/><use transform="matrix(0.05,0,0,0.05,39.9,0)" xlink:href="#at"/><use transform="matrix(0.05,0,0,0.05,49.9,0)" xlink:href="#aF"/><use transform="matrix(0.05,0,0,0.05,58.900000000000006,0)" xlink:href="#aH"/><use transform="matrix(0.05,0,0,0.05,68.9,0)" xlink:href="#aI"/></g><g id="K"><use transform="matrix(0.05,0,0,0.05,0,0)" xlink:href="#aP"/><use transform="matrix(0.05,0,0,0.05,12.950000000000001,0)" xlink:href="#aE"/><use transform="matrix(0.05,0,0,0.05,18.900000000000002,0)" xlink:href="#ax"/><use transform="matrix(0.05,0,0,0.05,22.85,0)" xlink:href="#aJ"/><use transform="matrix(0.05,0,0,0.05,27.85,0)" xlink:href="#ax"/><use transform="matrix(0.05,0,0,0.05,31.8,0)" xlink:href="#aF"/><use transform="matrix(0.05,0,0,0.05,40.8,0)" xlink:href="#at"/><use transform="matrix(0.05,0,0,0.05,50.8,0)" xlink:href="#aC"/></g><g id="L"><use transform="matrix(0.05,0,0,0.05,0,0)" xlink:href="#bi"/><use transform="matrix(0.05,0,0,0.05,5,0)" xlink:href="#av"/></g><g id="M"><use transform="matrix(0.05,0,0,0.05,0,0)" xlink:href="#aI"/><use transform="matrix(0.05,0,0,0.05,9,0)" xlink:href="#aJ"/><use transform="matrix(0.05,0,0,0.05,14,0)" xlink:href="#at"/><use transform="matrix(0.05,0,0,0.05,24,0)" xlink:href="#aE"/><use transform="matrix(0.05,0,0,0.05,29.950000000000003,0)" xlink:href="#aJ"/></g><use transform="matrix(0.05,0,0,0.05,0,0)" xlink:href="#bj" id="N"/><g id="O"><use transform="matrix(0.05,0,0,0.05,0,0)" xlink:href="#aI"/><use transform="matrix(0.05,0,0,0.05,9,0)" xlink:href="#aH"/><use transform="matrix(0.05,0,0,0.05,19,0)" xlink:href="#aJ"/><use transform="matrix(0.05,0,0,0.05,24,0)" xlink:href="#aB"/><use transform="matrix(0.05,0,0,0.05,34,0)" xlink:href="#au"/><use transform="matrix(0.05,0,0,0.05,44,0)" xlink:href="#bk"/></g><g id="P"><use transform="matrix(0.05,0,0,0.05,0,0)" xlink:href="#aS"/><use transform="matrix(0.05,0,0,0.05,12,0)" xlink:href="#at"/><use transform="matrix(0.05,0,0,0.05,22,0)" xlink:href="#aE"/></g><path fill="#333" d="M205 0l-28-72H64L36 0H1l101-248h38L239 0h-34zm-38-99l-47-123c-12 45-31 82-46 123h93" id="bl"/><g id="Q"><use transform="matrix(0.05,0,0,0.05,0,0)" xlink:href="#bl"/><use transform="matrix(0.05,0,0,0.05,12,0)" xlink:href="#aJ"/></g><g id="R"><use transform="matrix(0.05,0,0,0.05,0,0)" xlink:href="#aM"/><use transform="matrix(0.05,0,0,0.05,12,0)" xlink:href="#aJ"/><use transform="matrix(0.05,0,0,0.05,17,0)" xlink:href="#at"/><use transform="matrix(0.05,0,0,0.05,27,0)" xlink:href="#aE"/><use transform="matrix(0.05,0,0,0.05,32.95,0)" xlink:href="#aJ"/></g><g id="S"><use transform="matrix(0.05,0,0,0.05,0,0)" xlink:href="#aR"/><use transform="matrix(0.05,0,0,0.05,10.3,0)" xlink:href="#ax"/><use transform="matrix(0.05,0,0,0.05,14.25,0)" xlink:href="#bg"/><use transform="matrix(0.05,0,0,0.05,29.200000000000003,0)" xlink:href="#aH"/><use transform="matrix(0.05,0,0,0.05,39.2,0)" xlink:href="#bk"/></g><g id="T"><use transform="matrix(0.05,0,0,0.05,0,0)" xlink:href="#aM"/><use transform="matrix(0.05,0,0,0.05,12,0)" xlink:href="#aJ"/><use transform="matrix(0.05,0,0,0.05,17,0)" xlink:href="#at"/><use transform="matrix(0.05,0,0,0.05,27,0)" xlink:href="#aE"/><use transform="matrix(0.05,0,0,0.05,32.95,0)" xlink:href="#aJ"/></g><g id="U"><use transform="matrix(0.05,0,0,0.05,0,0)" xlink:href="#aI"/><use transform="matrix(0.05,0,0,0.05,9,0)" xlink:href="#aH"/><use transform="matrix(0.05,0,0,0.05,19,0)" xlink:href="#ay"/><use transform="matrix(0.05,0,0,0.05,29,0)" xlink:href="#aU"/><use transform="matrix(0.05,0,0,0.05,39,0)" xlink:href="#ax"/><use transform="matrix(0.05,0,0,0.05,42.95,0)" xlink:href="#ay"/><use transform="matrix(0.05,0,0,0.05,52.95,0)" xlink:href="#aL"/></g><g id="V"><use transform="matrix(0.05,0,0,0.05,0,0)" xlink:href="#aw"/><use transform="matrix(0.05,0,0,0.05,10,0)" xlink:href="#aK"/><use transform="matrix(0.05,0,0,0.05,20,0)" xlink:href="#aK"/><use transform="matrix(0.05,0,0,0.05,30,0)" xlink:href="#au"/></g><g id="W"><use transform="matrix(0.05,0,0,0.05,0,0)" xlink:href="#au"/><use transform="matrix(0.05,0,0,0.05,10,0)" xlink:href="#at"/><use transform="matrix(0.05,0,0,0.05,20,0)" xlink:href="#aF"/><use transform="matrix(0.05,0,0,0.05,29,0)" xlink:href="#az"/><use transform="matrix(0.05,0,0,0.05,38,0)" xlink:href="#aH"/><use transform="matrix(0.05,0,0,0.05,48,0)" xlink:href="#aJ"/><use transform="matrix(0.05,0,0,0.05,53,0)" xlink:href="#aI"/></g><path fill="#333" d="M143 4C61 4 22-44 18-125c-5-107 100-154 193-111 17 8 29 25 37 43l-32 9c-13-25-37-40-76-40-61 0-88 39-88 99 0 61 29 100 91 101 35 0 62-11 79-27v-45h-74v-28h105v86C228-13 192 4 143 4" id="bm"/><g id="X"><use transform="matrix(0.05,0,0,0.05,0,0)" xlink:href="#bm"/><use transform="matrix(0.05,0,0,0.05,14,0)" xlink:href="#aH"/><use transform="matrix(0.05,0,0,0.05,24,0)" xlink:href="#aJ"/></g><g id="Y"><use transform="matrix(0.05,0,0,0.05,0,0)" xlink:href="#aB"/><use transform="matrix(0.05,0,0,0.05,10,0)" xlink:href="#ay"/><use transform="matrix(0.05,0,0,0.05,20,0)" xlink:href="#aJ"/><use transform="matrix(0.05,0,0,0.05,25,0)" xlink:href="#ax"/><use transform="matrix(0.05,0,0,0.05,28.950000000000003,0)" xlink:href="#aC"/></g><g id="Z"><use transform="matrix(0.05,0,0,0.05,0,0)" xlink:href="#bd"/><use transform="matrix(0.05,0,0,0.05,10,0)" xlink:href="#aB"/><use transform="matrix(0.05,0,0,0.05,20,0)" xlink:href="#at"/><use transform="matrix(0.05,0,0,0.05,30,0)" xlink:href="#aC"/></g><g id="aa"><use transform="matrix(0.05,0,0,0.05,0,0)" xlink:href="#aF"/><use transform="matrix(0.05,0,0,0.05,9,0)" xlink:href="#aK"/><use transform="matrix(0.05,0,0,0.05,19,0)" xlink:href="#bg"/><use transform="matrix(0.05,0,0,0.05,33.95,0)" xlink:href="#au"/><use transform="matrix(0.05,0,0,0.05,43.95,0)" xlink:href="#aC"/><use transform="matrix(0.05,0,0,0.05,47.900000000000006,0)" xlink:href="#aH"/><use transform="matrix(0.05,0,0,0.05,57.900000000000006,0)" xlink:href="#aJ"/><use transform="matrix(0.05,0,0,0.05,62.900000000000006,0)" xlink:href="#aH"/></g><g id="ab"><use transform="matrix(0.05,0,0,0.05,0,0)" xlink:href="#aw"/><use transform="matrix(0.05,0,0,0.05,10,0)" xlink:href="#aK"/><use transform="matrix(0.05,0,0,0.05,20,0)" xlink:href="#aK"/><use transform="matrix(0.05,0,0,0.05,30,0)" xlink:href="#au"/></g><g id="ac"><use transform="matrix(0.05,0,0,0.05,0,0)" xlink:href="#bi"/><use transform="matrix(0.05,0,0,0.05,5,0)" xlink:href="#aB"/><use transform="matrix(0.05,0,0,0.05,15,0)" xlink:href="#au"/><use transform="matrix(0.05,0,0,0.05,25,0)" xlink:href="#aU"/><use transform="matrix(0.05,0,0,0.05,35,0)" xlink:href="#at"/><use transform="matrix(0.05,0,0,0.05,45,0)" xlink:href="#aJ"/><use transform="matrix(0.05,0,0,0.05,50,0)" xlink:href="#aH"/><use transform="matrix(0.05,0,0,0.05,60,0)" xlink:href="#aY"/><use transform="matrix(0.05,0,0,0.05,70,0)" xlink:href="#ax"/><use transform="matrix(0.05,0,0,0.05,73.95,0)" xlink:href="#ay"/><use transform="matrix(0.05,0,0,0.05,83.95,0)" xlink:href="#aJ"/><use transform="matrix(0.05,0,0,0.05,88.95,0)" xlink:href="#aH"/><use transform="matrix(0.05,0,0,0.05,98.95,0)" xlink:href="#aE"/><use transform="matrix(0.05,0,0,0.05,104.9,0)" xlink:href="#aN"/><use transform="matrix(0.05,0,0,0.05,113.9,0)" xlink:href="#at"/><use transform="matrix(0.05,0,0,0.05,123.9,0)" xlink:href="#aC"/><use transform="matrix(0.05,0,0,0.05,127.85000000000001,0)" xlink:href="#bk"/></g><g id="ad"><use transform="matrix(0.05,0,0,0.05,0,0)" xlink:href="#bm"/><use transform="matrix(0.05,0,0,0.05,14,0)" xlink:href="#aH"/><use transform="matrix(0.05,0,0,0.05,24,0)" xlink:href="#aJ"/><use transform="matrix(0.05,0,0,0.05,29,0)" xlink:href="#aX"/><use transform="matrix(0.05,0,0,0.05,34.95,0)" xlink:href="#ba"/></g><g id="ae"><use transform="matrix(0.05,0,0,0.05,0,0)" xlink:href="#bm"/><use transform="matrix(0.05,0,0,0.05,14,0)" xlink:href="#aH"/><use transform="matrix(0.05,0,0,0.05,24,0)" xlink:href="#aJ"/><use transform="matrix(0.05,0,0,0.05,29,0)" xlink:href="#bc"/><use transform="matrix(0.05,0,0,0.05,41.95,0)" xlink:href="#aH"/><use transform="matrix(0.05,0,0,0.05,51.95,0)" xlink:href="#aI"/><use transform="matrix(0.05,0,0,0.05,60.95,0)" xlink:href="#au"/><use transform="matrix(0.05,0,0,0.05,70.95,0)" xlink:href="#aK"/><use transform="matrix(0.05,0,0,0.05,80.95,0)" xlink:href="#ay"/><use transform="matrix(0.05,0,0,0.05,90.95,0)" xlink:href="#aI"/><use transform="matrix(0.05,0,0,0.05,99.95,0)" xlink:href="#aH"/></g><path fill="#333" d="M30 0v-248h187v28H63v79h144v27H63v87h162V0H30" id="bn"/><g id="af"><use transform="matrix(0.05,0,0,0.05,0,0)" xlink:href="#bn"/><use transform="matrix(0.05,0,0,0.05,12,0)" xlink:href="#ay"/><use transform="matrix(0.05,0,0,0.05,22,0)" xlink:href="#aU"/></g><g id="ag"><use transform="matrix(0.05,0,0,0.05,0,0)" xlink:href="#aD"/><use transform="matrix(0.05,0,0,0.05,14,0)" xlink:href="#au"/><use transform="matrix(0.05,0,0,0.05,24,0)" xlink:href="#aJ"/></g><g id="ah"><use transform="matrix(0.05,0,0,0.05,0,0)" xlink:href="#aV"/><use transform="matrix(0.05,0,0,0.05,5,0)" xlink:href="#aO"/></g><path fill="#333" d="M206 0h-36l-40-164L89 0H53L-1-190h32L70-26l43-164h34l41 164 42-164h31" id="bo"/><g id="ai"><use transform="matrix(0.05,0,0,0.05,0,0)" xlink:href="#aR"/><use transform="matrix(0.05,0,0,0.05,8.950000000000001,0)" xlink:href="#aH"/><use transform="matrix(0.05,0,0,0.05,18.950000000000003,0)" xlink:href="#at"/><use transform="matrix(0.05,0,0,0.05,28.950000000000003,0)" xlink:href="#aE"/><use transform="matrix(0.05,0,0,0.05,34.900000000000006,0)" xlink:href="#aU"/><use transform="matrix(0.05,0,0,0.05,44.900000000000006,0)" xlink:href="#aK"/><use transform="matrix(0.05,0,0,0.05,54.900000000000006,0)" xlink:href="#bo"/><use transform="matrix(0.05,0,0,0.05,67.85000000000001,0)" xlink:href="#ay"/></g><g id="aj"><use transform="matrix(0.05,0,0,0.05,0,0)" xlink:href="#aR"/><use transform="matrix(0.05,0,0,0.05,10.3,0)" xlink:href="#ax"/><use transform="matrix(0.05,0,0,0.05,14.25,0)" xlink:href="#bg"/><use transform="matrix(0.05,0,0,0.05,29.200000000000003,0)" xlink:href="#aH"/></g><g id="ak"><use transform="matrix(0.05,0,0,0.05,0,0)" xlink:href="#aI"/><use transform="matrix(0.05,0,0,0.05,9,0)" xlink:href="#aH"/><use transform="matrix(0.05,0,0,0.05,19,0)" xlink:href="#aJ"/><use transform="matrix(0.05,0,0,0.05,24,0)" xlink:href="#bk"/></g><path fill="#333" d="M266 0h-40l-56-210L115 0H75L2-248h35L96-30l15-64 43-154h32l59 218 59-218h35" id="bp"/><g id="al"><use transform="matrix(0.05,0,0,0.05,0,0)" xlink:href="#bp"/><use transform="matrix(0.05,0,0,0.05,16.3,0)" xlink:href="#at"/><use transform="matrix(0.05,0,0,0.05,26.3,0)" xlink:href="#ax"/><use transform="matrix(0.05,0,0,0.05,30.25,0)" xlink:href="#aJ"/></g><g id="am"><use transform="matrix(0.05,0,0,0.05,0,0)" xlink:href="#aJ"/><use transform="matrix(0.05,0,0,0.05,5,0)" xlink:href="#ax"/><use transform="matrix(0.05,0,0,0.05,8.95,0)" xlink:href="#aC"/></g><g id="an"><use transform="matrix(0.05,0,0,0.05,0,0)" xlink:href="#aR"/><use transform="matrix(0.05,0,0,0.05,10.3,0)" xlink:href="#ax"/><use transform="matrix(0.05,0,0,0.05,14.25,0)" xlink:href="#bg"/><use transform="matrix(0.05,0,0,0.05,29.200000000000003,0)" xlink:href="#aH"/></g><g id="ao"><use transform="matrix(0.05,0,0,0.05,0,0)" xlink:href="#aR"/><use transform="matrix(0.05,0,0,0.05,8.950000000000001,0)" xlink:href="#aH"/><use transform="matrix(0.05,0,0,0.05,18.950000000000003,0)" xlink:href="#at"/><use transform="matrix(0.05,0,0,0.05,28.950000000000003,0)" xlink:href="#aE"/><use transform="matrix(0.05,0,0,0.05,34.900000000000006,0)" xlink:href="#aU"/><use transform="matrix(0.05,0,0,0.05,44.900000000000006,0)" xlink:href="#aK"/><use transform="matrix(0.05,0,0,0.05,54.900000000000006,0)" xlink:href="#bo"/><use transform="matrix(0.05,0,0,0.05,67.85000000000001,0)" xlink:href="#ay"/></g><g id="ap"><use transform="matrix(0.05,0,0,0.05,0,0)" xlink:href="#aJ"/><use transform="matrix(0.05,0,0,0.05,5,0)" xlink:href="#ax"/><use transform="matrix(0.05,0,0,0.05,8.95,0)" xlink:href="#aC"/><use transform="matrix(0.05,0,0,0.05,12.899999999999999,0)" xlink:href="#aH"/></g><g id="aq"><use transform="matrix(0.05,0,0,0.05,0,0)" xlink:href="#bf"/><use transform="matrix(0.05,0,0,0.05,12.950000000000001,0)" xlink:href="#aH"/><use transform="matrix(0.05,0,0,0.05,22.950000000000003,0)" xlink:href="#aC"/><use transform="matrix(0.05,0,0,0.05,26.900000000000002,0)" xlink:href="#aH"/><use transform="matrix(0.05,0,0,0.05,36.900000000000006,0)" xlink:href="#aJ"/><use transform="matrix(0.05,0,0,0.05,41.900000000000006,0)" xlink:href="#aH"/></g><g id="ar"><use transform="matrix(0.05,0,0,0.05,0,0)" xlink:href="#aE"/><use transform="matrix(0.05,0,0,0.05,5.95,0)" xlink:href="#aH"/><use transform="matrix(0.05,0,0,0.05,15.949999999999998,0)" xlink:href="#aI"/><use transform="matrix(0.05,0,0,0.05,24.95,0)" xlink:href="#aB"/><use transform="matrix(0.05,0,0,0.05,34.95,0)" xlink:href="#aC"/><use transform="matrix(0.05,0,0,0.05,38.900000000000006,0)" xlink:href="#aJ"/><use transform="matrix(0.05,0,0,0.05,43.900000000000006,0)" xlink:href="#aI"/></g><g id="as"><use transform="matrix(0.05,0,0,0.05,0,0)" xlink:href="#bf"/><use transform="matrix(0.05,0,0,0.05,12.950000000000001,0)" xlink:href="#aH"/><use transform="matrix(0.05,0,0,0.05,22.950000000000003,0)" xlink:href="#aC"/><use transform="matrix(0.05,0,0,0.05,26.900000000000002,0)" xlink:href="#aH"/><use transform="matrix(0.05,0,0,0.05,36.900000000000006,0)" xlink:href="#aJ"/><use transform="matrix(0.05,0,0,0.05,41.900000000000006,0)" xlink:href="#aH"/><use transform="matrix(0.05,0,0,0.05,51.900000000000006,0)" xlink:href="#aX"/><use transform="matrix(0.05,0,0,0.05,57.85,0)" xlink:href="#ba"/></g></defs></g></svg>