<svg xmlns="http://www.w3.org/2000/svg" xmlns:xlink="http://www.w3.org/1999/xlink" xmlns:lucid="lucid" width="1360" height="1760"><g transform="translate(0 0)" lucid:page-tab-id="0_0"><path d="M0 0h1360v1760H0z" fill="#fff"/><path d="M1030.74 1705a5 5 0 0 1 5-5H1275a5 5 0 0 1 5 5v30a5 5 0 0 1-5 5h-239.26a5 5 0 0 1-5-5z" stroke="#000" stroke-opacity="0" stroke-width="2" fill-opacity="0"/><use xlink:href="#a" transform="matrix(1,0,0,1,1035.7420634920634,1705) translate(3.0524691358024825 18.069444444444446)"/><use xlink:href="#b" transform="matrix(1,0,0,1,1035.7420634920634,1705) translate(65.27469135802471 18.069444444444446)"/><use xlink:href="#c" transform="matrix(1,0,0,1,1035.7420634920634,1705) translate(100.62037037037038 18.069444444444446)"/><use xlink:href="#d" transform="matrix(1,0,0,1,1035.7420634920634,1705) translate(153.25 18.069444444444446)"/><use xlink:href="#e" transform="matrix(1,0,0,1,1035.7420634920634,1705) translate(187.77469135802468 18.069444444444446)"/><a xlink:href="https://github.com/kaltura/" target="_blank" transform="matrix(1,0,0,1,1035.7420634920634,1705)"><path class="lucid-link lucid-hotspot lucid-overlay-hotspot" fill-opacity="0" d="M187.77 5.63h49.17V24.3h-49.17z"/></a><path d="M253.15 76.16a8 8 0 0 1 8-8h836.75a8 8 0 0 1 8 8v25.15a8 8 0 0 1-8 8H261.15a8 8 0 0 1-8-8z" stroke="#000" stroke-opacity="0" stroke-width="2" fill="#fff" fill-opacity="0"/><use xlink:href="#f" transform="matrix(1,0,0,1,257.14655278534315,72.1552239566152) translate(266.1822222222222 25.782777777777778)"/><use xlink:href="#g" transform="matrix(1,0,0,1,257.14655278534315,72.1552239566152) translate(329.5525925925926 25.782777777777778)"/><use xlink:href="#h" transform="matrix(1,0,0,1,257.14655278534315,72.1552239566152) translate(466.1995061728395 25.782777777777778)"/><use xlink:href="#i" transform="matrix(1,0,0,1,257.14655278534315,72.1552239566152) translate(527.239012345679 25.782777777777778)"/><path d="M392.73 107.97H974M392.76 107.97h-1.03M973.97 107.97H975" stroke="#a9afb8" stroke-width="2" fill="none"/><path d="M253.15 117.3a8 8 0 0 1 8-8h837.7a8 8 0 0 1 8 8v2.86a8 8 0 0 1-8 8h-837.7a8 8 0 0 1-8-8z" stroke="#000" stroke-opacity="0" stroke-width="2" fill="#fff" fill-opacity="0"/><use xlink:href="#j" transform="matrix(1,0,0,1,257.1465527853436,113.31044791351401) translate(324.9932818930041 14.917037037037037)"/><use xlink:href="#k" transform="matrix(1,0,0,1,257.1465527853436,113.31044791351401) translate(379.29513374485595 14.917037037037037)"/><use xlink:href="#l" transform="matrix(1,0,0,1,257.1465527853436,113.31044791351401) translate(426.79863168724273 14.917037037037037)"/><use xlink:href="#m" transform="matrix(1,0,0,1,257.1465527853436,113.31044791351401) translate(439.2481172839506 14.917037037037037)"/><use xlink:href="#n" transform="matrix(1,0,0,1,257.1465527853436,113.31044791351401) translate(476.6390637860082 14.917037037037037)"/><use xlink:href="#o" transform="matrix(1,0,0,1,257.1465527853436,113.31044791351401) translate(493.63494855967076 14.917037037037037)"/><path d="M386.85 188a8 8 0 0 1 8-8h104a8 8 0 0 1 8 8v84a8 8 0 0 1-8 8h-104a8 8 0 0 1-8-8z" stroke="#333" fill="#fff"/><use xlink:href="#p" transform="matrix(1,0,0,1,386.8482763926719,180) translate(23.529999999999994 33.15)"/><use xlink:href="#q" transform="matrix(1,0,0,1,386.8482763926719,180) translate(63.529999999999994 33.15)"/><use xlink:href="#r" transform="matrix(1,0,0,1,386.8482763926719,180) translate(41.029999999999994 54.75)"/><use xlink:href="#s" transform="matrix(1,0,0,1,386.8482763926719,180) translate(10.079999999999993 76.35000000000001)"/><path d="M386.85 1648a8 8 0 0 1 8-8h104a8 8 0 0 1 8 8v84a8 8 0 0 1-8 8h-104a8 8 0 0 1-8-8z" stroke="#333" fill="#fff"/><use xlink:href="#p" transform="matrix(1,0,0,1,386.8482763926719,1640) translate(23.529999999999994 33.15)"/><use xlink:href="#q" transform="matrix(1,0,0,1,386.8482763926719,1640) translate(63.529999999999994 33.15)"/><use xlink:href="#r" transform="matrix(1,0,0,1,386.8482763926719,1640) translate(41.029999999999994 54.75)"/><use xlink:href="#s" transform="matrix(1,0,0,1,386.8482763926719,1640) translate(10.079999999999993 76.35000000000001)"/><path d="M446.85 280.95v4.98m0 4.97v9.95m0 4.97v9.95m0 4.98v9.95m0 4.97v9.95m0 4.98v9.95m0 4.97v9.95m0 4.98v9.95m0 4.97v9.95m0 4.97v9.94m0 4.98v9.95m0 4.97v9.95m0 4.97v9.95m0 4.97v9.94m0 4.97v9.96m0 4.98v9.95m0 4.96v9.95m0 5v9.94m0 4.97v9.96m0 4.98v9.94m0 4.98v9.95m0 4.98v9.95m0 4.98v9.96m0 4.97v9.95m0 4.98v9.95m0 4.98v9.95m0 4.97v9.95m0 4.98v9.95m0 4.97v9.95m0 4.98v9.95m0 4.97v9.95m0 4.98v9.94m0 4.98v9.95m0 4.97v9.95m0 4.98v9.95m0 4.97v9.95m0 4.98v9.95m0 4.97v9.95m0 4.97v9.94m0 4.98v9.95m0 4.97v9.95m0 4.97v9.95m0 4.97v9.94m0 4.97v9.96m0 4.98v9.95m0 4.96v9.95m0 5v9.94m0 4.97v9.96m0 4.98v9.95m0 4.96v9.95m0 4.98v9.95m0 4.98v9.96m0 4.97v9.95m0 4.98v9.95m0 4.98v9.95m0 4.97v9.95m0 4.98v9.95m0 4.97v9.95m0 4.98v9.95m0 4.97v9.95m0 4.98v9.94m0 4.98v9.95m0 4.97v9.95m0 4.98v9.95m0 4.97v9.95m0 4.98v9.95m0 4.97v9.95m0 4.97v9.94m0 4.98v9.95m0 4.97v9.95m0 4.97v9.95m0 4.97v9.94m0 4.98v9.94m0 4.98v9.95m0 4.96v9.95m0 5v9.94m0 4.97v9.96m0 4.98v9.95m0 4.96v9.95m0 4.98v9.95m0 4.98v9.96m0 4.97v9.95m0 4.98v9.95m0 4.98v9.95m0 4.97v9.95m0 4.98v9.95m0 4.97v9.95m0 4.98v9.95m0 4.97v9.95m0 4.98v9.95m0 4.97v9.95m0 4.97v4.98" stroke="#333" fill="none"/><path d="M447.35 280.96h-1v-.5h1zM447.35 1639.55h-1v-.5h1z" stroke="#333" stroke-width=".05" fill="#333"/><path d="M626.85 188a8 8 0 0 1 8-8h104a8 8 0 0 1 8 8v84a8 8 0 0 1-8 8h-104a8 8 0 0 1-8-8z" stroke="#333" fill="#fff"/><use xlink:href="#t" transform="matrix(1,0,0,1,626.8482763926719,180) translate(23.529999999999994 42.525)"/><use xlink:href="#q" transform="matrix(1,0,0,1,626.8482763926719,180) translate(63.529999999999994 42.525)"/><use xlink:href="#u" transform="matrix(1,0,0,1,626.8482763926719,180) translate(8.579999999999993 64.125)"/><use xlink:href="#v" transform="matrix(1,0,0,1,626.8482763926719,180) translate(51.529999999999994 64.125)"/><path d="M626.85 1648a8 8 0 0 1 8-8h104a8 8 0 0 1 8 8v84a8 8 0 0 1-8 8h-104a8 8 0 0 1-8-8z" stroke="#333" fill="#fff"/><use xlink:href="#t" transform="matrix(1,0,0,1,626.8482763926719,1640) translate(23.529999999999994 42.525)"/><use xlink:href="#q" transform="matrix(1,0,0,1,626.8482763926719,1640) translate(63.529999999999994 42.525)"/><use xlink:href="#u" transform="matrix(1,0,0,1,626.8482763926719,1640) translate(8.579999999999993 64.125)"/><use xlink:href="#v" transform="matrix(1,0,0,1,626.8482763926719,1640) translate(51.529999999999994 64.125)"/><path d="M686.85 280.95v4.98m0 4.97v9.95m0 4.97v9.95m0 4.98v9.95m0 4.97v9.95m0 4.98v9.95m0 4.97v9.95m0 4.98v9.95m0 4.97v9.95m0 4.97v9.94m0 4.98v9.95m0 4.97v9.95m0 4.97v9.95m0 4.97v9.94m0 4.97v9.96m0 4.98v9.95m0 4.96v9.95m0 5v9.94m0 4.97v9.96m0 4.98v9.94m0 4.98v9.95m0 4.98v9.95m0 4.98v9.96m0 4.97v9.95m0 4.98v9.95m0 4.98v9.95m0 4.97v9.95m0 4.98v9.95m0 4.97v9.95m0 4.98v9.95m0 4.97v9.95m0 4.98v9.94m0 4.98v9.95m0 4.97v9.95m0 4.98v9.95m0 4.97v9.95m0 4.98v9.95m0 4.97v9.95m0 4.97v9.94m0 4.98v9.95m0 4.97v9.95m0 4.97v9.95m0 4.97v9.94m0 4.97v9.96m0 4.98v9.95m0 4.96v9.95m0 5v9.94m0 4.97v9.96m0 4.98v9.95m0 4.96v9.95m0 4.98v9.95m0 4.98v9.96m0 4.97v9.95m0 4.98v9.95m0 4.98v9.95m0 4.97v9.95m0 4.98v9.95m0 4.97v9.95m0 4.98v9.95m0 4.97v9.95m0 4.98v9.94m0 4.98v9.95m0 4.97v9.95m0 4.98v9.95m0 4.97v9.95m0 4.98v9.95m0 4.97v9.95m0 4.97v9.94m0 4.98v9.95m0 4.97v9.95m0 4.97v9.95m0 4.97v9.94m0 4.98v9.94m0 4.98v9.95m0 4.96v9.95m0 5v9.94m0 4.97v9.96m0 4.98v9.95m0 4.96v9.95m0 4.98v9.95m0 4.98v9.96m0 4.97v9.95m0 4.98v9.95m0 4.98v9.95m0 4.97v9.95m0 4.98v9.95m0 4.97v9.95m0 4.98v9.95m0 4.97v9.95m0 4.98v9.95m0 4.97v9.95m0 4.97v4.98" stroke="#333" fill="none"/><path d="M687.35 280.96h-1v-.5h1zM687.35 1639.55h-1v-.5h1z" stroke="#333" stroke-width=".05" fill="#333"/><path d="M866.85 188a8 8 0 0 1 8-8h104a8 8 0 0 1 8 8v84a8 8 0 0 1-8 8h-104a8 8 0 0 1-8-8z" stroke="#333" fill="#fff"/><use xlink:href="#w" transform="matrix(1,0,0,1,866.8482763926719,180) translate(14.08 42.525)"/><use xlink:href="#q" transform="matrix(1,0,0,1,866.8482763926719,180) translate(72.97999999999999 42.525)"/><use xlink:href="#u" transform="matrix(1,0,0,1,866.8482763926719,180) translate(8.579999999999993 64.125)"/><use xlink:href="#v" transform="matrix(1,0,0,1,866.8482763926719,180) translate(51.529999999999994 64.125)"/><path d="M866.85 1648a8 8 0 0 1 8-8h104a8 8 0 0 1 8 8v84a8 8 0 0 1-8 8h-104a8 8 0 0 1-8-8z" stroke="#333" fill="#fff"/><use xlink:href="#w" transform="matrix(1,0,0,1,866.8482763926719,1640) translate(14.08 42.525)"/><use xlink:href="#q" transform="matrix(1,0,0,1,866.8482763926719,1640) translate(72.97999999999999 42.525)"/><use xlink:href="#u" transform="matrix(1,0,0,1,866.8482763926719,1640) translate(8.579999999999993 64.125)"/><use xlink:href="#v" transform="matrix(1,0,0,1,866.8482763926719,1640) translate(51.529999999999994 64.125)"/><path d="M926.85 280.95v4.98m0 4.97v9.95m0 4.97v9.95m0 4.98v9.95m0 4.97v9.95m0 4.98v9.95m0 4.97v9.95m0 4.98v9.95m0 4.97v9.95m0 4.97v9.94m0 4.98v9.95m0 4.97v9.95m0 4.97v9.95m0 4.97v9.94m0 4.97v9.96m0 4.98v9.95m0 4.96v9.95m0 5v9.94m0 4.97v9.96m0 4.98v9.94m0 4.98v9.95m0 4.98v9.95m0 4.98v9.96m0 4.97v9.95m0 4.98v9.95m0 4.98v9.95m0 4.97v9.95m0 4.98v9.95m0 4.97v9.95m0 4.98v9.95m0 4.97v9.95m0 4.98v9.94m0 4.98v9.95m0 4.97v9.95m0 4.98v9.95m0 4.97v9.95m0 4.98v9.95m0 4.97v9.95m0 4.97v9.94m0 4.98v9.95m0 4.97v9.95m0 4.97v9.95m0 4.97v9.94m0 4.97v9.96m0 4.98v9.95m0 4.96v9.95m0 5v9.94m0 4.97v9.96m0 4.98v9.95m0 4.96v9.95m0 4.98v9.95m0 4.98v9.96m0 4.97v9.95m0 4.98v9.95m0 4.98v9.95m0 4.97v9.95m0 4.98v9.95m0 4.97v9.95m0 4.98v9.95m0 4.97v9.95m0 4.98v9.94m0 4.98v9.95m0 4.97v9.95m0 4.98v9.95m0 4.97v9.95m0 4.98v9.95m0 4.97v9.95m0 4.97v9.94m0 4.98v9.95m0 4.97v9.95m0 4.97v9.95m0 4.97v9.94m0 4.98v9.94m0 4.98v9.95m0 4.96v9.95m0 5v9.94m0 4.97v9.96m0 4.98v9.95m0 4.96v9.95m0 4.98v9.95m0 4.98v9.96m0 4.97v9.95m0 4.98v9.95m0 4.98v9.95m0 4.97v9.95m0 4.98v9.95m0 4.97v9.95m0 4.98v9.95m0 4.97v9.95m0 4.98v9.95m0 4.97v9.95m0 4.97v4.98" stroke="#333" fill="none"/><path d="M927.35 280.96h-1v-.5h1zM927.35 1639.55h-1v-.5h1z" stroke="#333" stroke-width=".05" fill="#333"/><path d="M426.85 328.42a8 8 0 0 1 8-8h24a8 8 0 0 1 8 8v1303.13a8 8 0 0 1-8 8h-24a8 8 0 0 1-8-8zM666.85 328.42a8 8 0 0 1 8-8h24a8 8 0 0 1 8 8v1303.13a8 8 0 0 1-8 8h-24a8 8 0 0 1-8-8zM906.85 328.42a8 8 0 0 1 8-8h24a8 8 0 0 1 8 8v1303.13a8 8 0 0 1-8 8h-24a8 8 0 0 1-8-8z" stroke="#333" fill="#fff"/><path d="M363.47 340.37h154.75l12 12v48H363.47z" stroke="#333" fill="#fff"/><path d="M518.22 340.85v11.52h11.53" stroke="#333" fill="#fff"/><use xlink:href="#x" transform="matrix(1,0,0,1,368.4732763926719,345.37165658355764) translate(15.124999999999993 30.025)"/><use xlink:href="#y" transform="matrix(1,0,0,1,368.4732763926719,345.37165658355764) translate(49.12499999999999 30.025)"/><path d="M467.35 460.33h183.1" stroke="#333" fill="none"/><path d="M467.36 460.83h-.1v-1h.1z" stroke="#333" stroke-width=".05" fill="#333"/><path d="M665.23 460.33l-14.27 4.64v-9.27z" stroke="#333" fill="#333"/><use xlink:href="#z" transform="matrix(1,0,0,1,514.5232763926718,434.73183623531935) translate(0.005000000000002558 14.4)"/><path d="M666.35 520.3H483.23" stroke="#333" fill="none"/><path d="M666.36 520.8h-.02v-1h.02z" stroke="#333" stroke-width=".05" fill="#333"/><path d="M468.47 520.3l14.26-4.64v9.27z" stroke="#333" fill="#333"/><use xlink:href="#A" transform="matrix(1,0,0,1,482.49827639267187,490.0567609714569) translate(0.0049999999999954525 14.4)"/><path d="M467.35 580.25h423.1" stroke="#333" fill="none"/><path d="M467.36 580.75h-.1v-1h.1z" stroke="#333" stroke-width=".05" fill="#333"/><path d="M905.23 580.25l-14.27 4.64v-9.28z" stroke="#333" fill="#333"/><use xlink:href="#z" transform="matrix(1,0,0,1,634.5232763926718,554.6521955388428) translate(0.005000000000002558 14.4)"/><path d="M906.35 640.2H483.23" stroke="#333" fill="none"/><path d="M906.37 640.7h-.03v-1h.03z" stroke="#333" stroke-width=".05" fill="#333"/><path d="M468.47 640.2l14.26-4.62v9.27z" stroke="#333" fill="#333"/><use xlink:href="#A" transform="matrix(1,0,0,1,602.4982763926719,614.6123751906044) translate(0.0049999999999954525 14.4)"/><path d="M226.57 660.16h428.55l12 12v48H226.57z" stroke="#333" fill="#fff"/><path d="M655.12 660.64v11.52h11.53" stroke="#333" fill="#fff"/><use xlink:href="#B" transform="matrix(1,0,0,1,231.5732763926719,665.1592813929533) translate(15.224999999999994 30.025)"/><use xlink:href="#C" transform="matrix(1,0,0,1,231.5732763926719,665.1592813929533) translate(76.125 30.025)"/><use xlink:href="#D" transform="matrix(1,0,0,1,231.5732763926719,665.1592813929533) translate(127.025 30.025)"/><use xlink:href="#E" transform="matrix(1,0,0,1,231.5732763926719,665.1592813929533) translate(208.925 30.025)"/><use xlink:href="#F" transform="matrix(1,0,0,1,231.5732763926719,665.1592813929533) translate(247.925 30.025)"/><use xlink:href="#G" transform="matrix(1,0,0,1,231.5732763926719,665.1592813929533) translate(257.925 30.025)"/><use xlink:href="#E" transform="matrix(1,0,0,1,231.5732763926719,665.1592813929533) translate(327.775 30.025)"/><use xlink:href="#H" transform="matrix(1,0,0,1,231.5732763926719,665.1592813929533) translate(366.775 30.025)"/><use xlink:href="#I" transform="matrix(1,0,0,1,231.5732763926719,665.1592813929533) translate(386.775 30.025)"/><path d="M467.35 780.12h183.1" stroke="#333" fill="none"/><path d="M467.36 780.62h-.08v-1h.08z" stroke="#333" stroke-width=".05" fill="#333"/><path d="M665.23 780.12l-14.27 4.63v-9.27z" stroke="#333" fill="#333"/><use xlink:href="#J" transform="matrix(1,0,0,1,533.9482763926719,754.5194610447152) translate(0.005000000000002558 14.4)"/><path d="M572.15 800.07h217.4l12 12v48h-229.4z" stroke="#333" fill="#fff"/><path d="M789.55 800.54v11.53h11.52" stroke="#333" fill="#fff"/><use xlink:href="#K" transform="matrix(1,0,0,1,577.1482763926718,805.0663672470639) translate(15.299999999999997 30.025)"/><use xlink:href="#L" transform="matrix(1,0,0,1,577.1482763926718,805.0663672470639) translate(83.85 30.025)"/><path d="M467.35 920.03h423.1" stroke="#333" fill="none"/><path d="M467.36 920.53h-.07v-1h.06z" stroke="#333" stroke-width=".05" fill="#333"/><path d="M905.23 920.03l-14.27 4.63v-9.27z" stroke="#333" fill="#333"/><g><use xlink:href="#J" transform="matrix(1,0,0,1,653.948276392672,894.4265468988259) translate(0.005000000000002558 14.4)"/></g><path d="M812.15 939.97h217.4l12 12v48h-229.4z" stroke="#333" fill="#fff"/><path d="M1029.55 940.45v11.52h11.52" stroke="#333" fill="#fff"/><g><use xlink:href="#K" transform="matrix(1,0,0,1,817.1482763926718,944.9734531011744) translate(15.299999999999997 30.025)"/><use xlink:href="#L" transform="matrix(1,0,0,1,817.1482763926718,944.9734531011744) translate(83.85 30.025)"/></g><path d="M312.47 1019.92h256.75l12 12v48H312.47z" stroke="#333" fill="#fff"/><path d="M569.22 1020.4v11.52h11.53" stroke="#333" fill="#fff"/><g><use xlink:href="#M" transform="matrix(1,0,0,1,317.4732763926719,1024.9203593035236) translate(15.124999999999986 30.025)"/><use xlink:href="#N" transform="matrix(1,0,0,1,317.4732763926719,1024.9203593035236) translate(60.124999999999986 30.025)"/><use xlink:href="#O" transform="matrix(1,0,0,1,317.4732763926719,1024.9203593035236) translate(94.12499999999999 30.025)"/><use xlink:href="#P" transform="matrix(1,0,0,1,317.4732763926719,1024.9203593035236) translate(132.02499999999998 30.025)"/><use xlink:href="#Q" transform="matrix(1,0,0,1,317.4732763926719,1024.9203593035236) translate(170.97500000000002 30.025)"/></g><path d="M416.85 1107.9a8 8 0 0 1 8-8h84a8 8 0 0 1 8 8v4.94a17.07 17.07 0 0 1-5 12.07 17.07 17.07 0 0 1-12.07 5h-74.93a8 8 0 0 1-8-8z" fill="#fff"/><path d="M516.85 1099.9v20l-10 10h-90" stroke="#333" fill="none"/><path d="M416.85 1107.9a8 8 0 0 1 8-8h524a8 8 0 0 1 8 8v283.8a8 8 0 0 1-8 8h-524a8 8 0 0 1-8-8z" stroke="#333" fill="none"/><g><use xlink:href="#R" transform="matrix(1,0,0,1,424.8482763926719,1099.9070858541106) translate(21 18.6)"/></g><g><use xlink:href="#S" transform="matrix(1,0,0,1,428.8482763926719,1137.9070858541106) translate(13.574999999999989 18.6)"/></g><path d="M467.35 1199.84h183.1" stroke="#333" fill="none"/><path d="M467.36 1200.34h-.04v-1h.04z" stroke="#333" stroke-width=".05" fill="#333"/><path d="M665.23 1199.84l-14.27 4.64v-9.27z" stroke="#333" fill="#333"/><g><use xlink:href="#T" transform="matrix(1,0,0,1,546.3982763926718,1174.2407186070473) translate(0.004999999999999005 14.4)"/></g><path d="M666.35 1259.8H483.23" stroke="#333" fill="none"/><path d="M666.42 1260.3h-.08v-1h.08z" stroke="#333" stroke-width=".05" fill="#333"/><path d="M468.47 1259.8l14.26-4.63v9.27z" stroke="#333" fill="#333"/><g><use xlink:href="#U" transform="matrix(1,0,0,1,511.87327639267187,1234.2008982588086) translate(0.005000000000002558 14.4)"/></g><path d="M467.35 1319.76h423.1" stroke="#333" fill="none"/><path d="M467.36 1320.26h-.04v-1h.04z" stroke="#333" stroke-width=".05" fill="#333"/><path d="M905.23 1319.76l-14.27 4.64v-9.27z" stroke="#333" fill="#333"/><g><use xlink:href="#T" transform="matrix(1,0,0,1,666.3982763926718,1294.1610779105704) translate(0.004999999999999005 14.4)"/></g><path d="M906.35 1379.72H483.23" stroke="#333" fill="none"/><path d="M906.43 1380.22h-.1v-1h.1z" stroke="#333" stroke-width=".05" fill="#333"/><path d="M468.47 1379.72l14.26-4.63v9.26z" stroke="#333" fill="#333"/><g><use xlink:href="#U" transform="matrix(1,0,0,1,631.8732763926719,1354.1212575623322) translate(0.005000000000002558 14.4)"/></g><path d="M371.95 1419.65h137.8l12 12v48h-149.8z" stroke="#333" fill="#fff"/><path d="M509.75 1420.13v11.52h11.52" stroke="#333" fill="#fff"/><g><use xlink:href="#V" transform="matrix(1,0,0,1,376.9482763926719,1424.654890315268) translate(15.099999999999994 30.025)"/><use xlink:href="#W" transform="matrix(1,0,0,1,376.9482763926719,1424.654890315268) translate(72 30.025)"/></g><path d="M467.35 1539.62h183.1" stroke="#333" fill="none"/><path d="M467.36 1540.12h-.02v-1h.02z" stroke="#333" stroke-width=".05" fill="#333"/><path d="M665.23 1539.62l-14.27 4.63v-9.27z" stroke="#333" fill="#333"/><g><use xlink:href="#X" transform="matrix(1,0,0,1,534.9482763926719,1514.0150699670298) translate(0.004999999999999005 14.4)"/></g><path d="M467.35 1599.58h423.1" stroke="#333" fill="none"/><path d="M467.36 1600.08v-1z" stroke="#333" stroke-width=".05" fill="#333"/><path d="M905.23 1599.58l-14.27 4.63v-9.26z" stroke="#333" fill="#333"/><g><use xlink:href="#X" transform="matrix(1,0,0,1,654.9482763926719,1573.9752496187916) translate(0.004999999999999005 14.4)"/></g><defs><path fill="#333" d="M205 0l-28-72H64L36 0H1l101-248h38L239 0h-34zm-38-99l-47-123c-12 45-31 82-46 123h93" id="Y"/><path fill="#333" d="M85-194c31 0 48 13 60 33l-1-100h32l1 261h-30c-2-10 0-23-3-31C134-8 116 4 85 4 32 4 16-35 15-94c0-66 23-100 70-100zm9 24c-40 0-46 34-46 75 0 40 6 74 45 74 42 0 51-32 51-76 0-42-9-74-50-73" id="Z"/><path fill="#333" d="M141-36C126-15 110 5 73 4 37 3 15-17 15-53c-1-64 63-63 125-63 3-35-9-54-41-54-24 1-41 7-42 31l-33-3c5-37 33-52 76-52 45 0 72 20 72 64v82c-1 20 7 32 28 27v20c-31 9-61-2-59-35zM48-53c0 20 12 33 32 33 41-3 63-29 60-74-43 2-92-5-92 41" id="aa"/><path fill="#333" d="M115-194c55 1 70 41 70 98S169 2 115 4C84 4 66-9 55-30l1 105H24l-1-265h31l2 30c10-21 28-34 59-34zm-8 174c40 0 45-34 45-75s-6-73-45-74c-42 0-51 32-51 76 0 43 10 73 51 73" id="ab"/><path fill="#333" d="M59-47c-2 24 18 29 38 22v24C64 9 27 4 27-40v-127H5v-23h24l9-43h21v43h35v23H59v120" id="ac"/><path fill="#333" d="M100-194c63 0 86 42 84 106H49c0 40 14 67 53 68 26 1 43-12 49-29l28 8c-11 28-37 45-77 45C44 4 14-33 15-96c1-61 26-98 85-98zm52 81c6-60-76-77-97-28-3 7-6 17-6 28h103" id="ad"/><g id="a"><use transform="matrix(0.04320987654320988,0,0,0.04320987654320988,0,0)" xlink:href="#Y"/><use transform="matrix(0.04320987654320988,0,0,0.04320987654320988,10.370370370370372,0)" xlink:href="#Z"/><use transform="matrix(0.04320987654320988,0,0,0.04320987654320988,19.01234567901235,0)" xlink:href="#aa"/><use transform="matrix(0.04320987654320988,0,0,0.04320987654320988,27.654320987654323,0)" xlink:href="#ab"/><use transform="matrix(0.04320987654320988,0,0,0.04320987654320988,36.2962962962963,0)" xlink:href="#ac"/><use transform="matrix(0.04320987654320988,0,0,0.04320987654320988,40.617283950617285,0)" xlink:href="#ad"/><use transform="matrix(0.04320987654320988,0,0,0.04320987654320988,49.25925925925925,0)" xlink:href="#Z"/></g><path fill="#333" d="M101-234c-31-9-42 10-38 44h38v23H63V0H32v-167H5v-23h27c-7-52 17-82 69-68v24" id="ae"/><path fill="#333" d="M114-163C36-179 61-72 57 0H25l-1-190h30c1 12-1 29 2 39 6-27 23-49 58-41v29" id="af"/><path fill="#333" d="M100-194c62-1 85 37 85 99 1 63-27 99-86 99S16-35 15-95c0-66 28-99 85-99zM99-20c44 1 53-31 53-75 0-43-8-75-51-75s-53 32-53 75 10 74 51 75" id="ag"/><path fill="#333" d="M210-169c-67 3-38 105-44 169h-31v-121c0-29-5-50-35-48C34-165 62-65 56 0H25l-1-190h30c1 10-1 24 2 32 10-44 99-50 107 0 11-21 27-35 58-36 85-2 47 119 55 194h-31v-121c0-29-5-49-35-48" id="ah"/><g id="b"><use transform="matrix(0.04320987654320988,0,0,0.04320987654320988,0,0)" xlink:href="#ae"/><use transform="matrix(0.04320987654320988,0,0,0.04320987654320988,4.320987654320988,0)" xlink:href="#af"/><use transform="matrix(0.04320987654320988,0,0,0.04320987654320988,9.462962962962964,0)" xlink:href="#ag"/><use transform="matrix(0.04320987654320988,0,0,0.04320987654320988,18.10493827160494,0)" xlink:href="#ah"/></g><path fill="#333" d="M143 4C61 4 22-44 18-125c-5-107 100-154 193-111 17 8 29 25 37 43l-32 9c-13-25-37-40-76-40-61 0-88 39-88 99 0 61 29 100 91 101 35 0 62-11 79-27v-45h-74v-28h105v86C228-13 192 4 143 4" id="ai"/><path fill="#333" d="M24-231v-30h32v30H24zM24 0v-190h32V0H24" id="aj"/><path fill="#333" d="M197 0v-115H63V0H30v-248h33v105h134v-105h34V0h-34" id="ak"/><path fill="#333" d="M84 4C-5 8 30-112 23-190h32v120c0 31 7 50 39 49 72-2 45-101 50-169h31l1 190h-30c-1-10 1-25-2-33-11 22-28 36-60 37" id="al"/><path fill="#333" d="M115-194c53 0 69 39 70 98 0 66-23 100-70 100C84 3 66-7 56-30L54 0H23l1-261h32v101c10-23 28-34 59-34zm-8 174c40 0 45-34 45-75 0-40-5-75-45-74-42 0-51 32-51 76 0 43 10 73 51 73" id="am"/><g id="c"><use transform="matrix(0.04320987654320988,0,0,0.04320987654320988,0,0)" xlink:href="#ai"/><use transform="matrix(0.04320987654320988,0,0,0.04320987654320988,12.098765432098766,0)" xlink:href="#aj"/><use transform="matrix(0.04320987654320988,0,0,0.04320987654320988,15.512345679012347,0)" xlink:href="#ac"/><use transform="matrix(0.04320987654320988,0,0,0.04320987654320988,19.833333333333336,0)" xlink:href="#ak"/><use transform="matrix(0.04320987654320988,0,0,0.04320987654320988,31.024691358024693,0)" xlink:href="#al"/><use transform="matrix(0.04320987654320988,0,0,0.04320987654320988,39.66666666666667,0)" xlink:href="#am"/></g><path fill="#333" d="M135-143c-3-34-86-38-87 0 15 53 115 12 119 90S17 21 10-45l28-5c4 36 97 45 98 0-10-56-113-15-118-90-4-57 82-63 122-42 12 7 21 19 24 35" id="an"/><g id="d"><use transform="matrix(0.04320987654320988,0,0,0.04320987654320988,0,0)" xlink:href="#al"/><use transform="matrix(0.04320987654320988,0,0,0.04320987654320988,8.641975308641976,0)" xlink:href="#an"/><use transform="matrix(0.04320987654320988,0,0,0.04320987654320988,16.419753086419753,0)" xlink:href="#ad"/><use transform="matrix(0.04320987654320988,0,0,0.04320987654320988,25.061728395061728,0)" xlink:href="#af"/></g><path fill="#333" d="M194 0L95-120 63-95V0H30v-248h33v124l119-124h40L117-140 236 0h-42" id="ao"/><path fill="#333" d="M24 0v-261h32V0H24" id="ap"/><g id="e"><use transform="matrix(0.04320987654320988,0,0,0.04320987654320988,0,0)" xlink:href="#ao"/><use transform="matrix(0.04320987654320988,0,0,0.04320987654320988,10.370370370370372,0)" xlink:href="#aa"/><use transform="matrix(0.04320987654320988,0,0,0.04320987654320988,19.01234567901235,0)" xlink:href="#ap"/><use transform="matrix(0.04320987654320988,0,0,0.04320987654320988,22.425925925925934,0)" xlink:href="#ac"/><use transform="matrix(0.04320987654320988,0,0,0.04320987654320988,26.746913580246915,0)" xlink:href="#al"/><use transform="matrix(0.04320987654320988,0,0,0.04320987654320988,35.38888888888889,0)" xlink:href="#af"/><use transform="matrix(0.04320987654320988,0,0,0.04320987654320988,40.53086419753087,0)" xlink:href="#aa"/><path fill="#8080ff" d="M-.78 1.08h50.73v1.14H-.78z"/></g><path fill="#a9afb8" d="M238-95c0 69-44 99-111 99C63 4 22-25 22-93v-155h51v151c-1 38 19 59 55 60 90 1 49-130 58-211h52v153" id="aq"/><path fill="#a9afb8" d="M230 0l2-204L168 0h-37L68-204 70 0H24v-248h70l56 185 57-185h69V0h-46" id="ar"/><path fill="#a9afb8" d="M24 0v-248h52v208h133V0H24" id="as"/><g id="f"><use transform="matrix(0.0728395061728395,0,0,0.0728395061728395,0,0)" xlink:href="#aq"/><use transform="matrix(0.0728395061728395,0,0,0.0728395061728395,18.86543209876543,0)" xlink:href="#ar"/><use transform="matrix(0.0728395061728395,0,0,0.0728395061728395,40.644444444444446,0)" xlink:href="#as"/></g><path fill="#a9afb8" d="M137-138c1-29-70-34-71-4 15 46 118 7 119 86 1 83-164 76-172 9l43-7c4 19 20 25 44 25 33 8 57-30 24-41C81-84 22-81 20-136c-2-80 154-74 161-7" id="at"/><path fill="#a9afb8" d="M185-48c-13 30-37 53-82 52C43 2 14-33 14-96s30-98 90-98c62 0 83 45 84 108H66c0 31 8 55 39 56 18 0 30-7 34-22zm-45-69c5-46-57-63-70-21-2 6-4 13-4 21h74" id="au"/><path fill="#a9afb8" d="M84 4C32 4 15-41 15-95c0-55 18-99 73-99 29 0 47 12 58 34l2-30h48l-1 265h-49V-32C136-9 114 4 84 4zm21-34c32 0 41-29 41-66 0-36-9-64-40-64-33 0-39 30-40 65 0 43 13 65 39 65" id="av"/><path fill="#a9afb8" d="M85 4C-2 5 27-109 22-190h50c7 57-23 150 33 157 60-5 35-97 40-157h50l1 190h-47c-2-12 1-28-3-38-12 25-28 42-61 42" id="aw"/><path fill="#a9afb8" d="M135-194c87-1 58 113 63 194h-50c-7-57 23-157-34-157-59 0-34 97-39 157H25l-1-190h47c2 12-1 28 3 38 12-26 28-41 61-42" id="ax"/><path fill="#a9afb8" d="M190-63c-7 42-38 67-86 67-59 0-84-38-90-98-12-110 154-137 174-36l-49 2c-2-19-15-32-35-32-30 0-35 28-38 64-6 74 65 87 74 30" id="ay"/><path fill="#a9afb8" d="M35-132v-50h50v50H35zM35 0v-49h50V0H35" id="az"/><g id="g"><use transform="matrix(0.0728395061728395,0,0,0.0728395061728395,0,0)" xlink:href="#at"/><use transform="matrix(0.0728395061728395,0,0,0.0728395061728395,14.5679012345679,0)" xlink:href="#au"/><use transform="matrix(0.0728395061728395,0,0,0.0728395061728395,29.1358024691358,0)" xlink:href="#av"/><use transform="matrix(0.0728395061728395,0,0,0.0728395061728395,45.08765432098765,0)" xlink:href="#aw"/><use transform="matrix(0.0728395061728395,0,0,0.0728395061728395,61.0395061728395,0)" xlink:href="#au"/><use transform="matrix(0.0728395061728395,0,0,0.0728395061728395,75.60740740740741,0)" xlink:href="#ax"/><use transform="matrix(0.0728395061728395,0,0,0.0728395061728395,91.55925925925926,0)" xlink:href="#ay"/><use transform="matrix(0.0728395061728395,0,0,0.0728395061728395,106.12716049382716,0)" xlink:href="#au"/><use transform="matrix(0.0728395061728395,0,0,0.0728395061728395,120.69506172839506,0)" xlink:href="#az"/></g><path fill="#a9afb8" d="M25-224v-37h50v37H25zM25 0v-190h50V0H25" id="aA"/><path fill="#a9afb8" d="M147 0L96-86 75-71V0H25v-261h50v150l67-79h53l-66 74L201 0h-54" id="aB"/><g id="h"><use transform="matrix(0.0728395061728395,0,0,0.0728395061728395,0,0)" xlink:href="#as"/><use transform="matrix(0.0728395061728395,0,0,0.0728395061728395,15.95185185185185,0)" xlink:href="#aA"/><use transform="matrix(0.0728395061728395,0,0,0.0728395061728395,23.235802469135802,0)" xlink:href="#ax"/><use transform="matrix(0.0728395061728395,0,0,0.0728395061728395,39.187654320987654,0)" xlink:href="#aB"/></g><path fill="#a9afb8" d="M140-251c80 0 125 45 125 126 0 70-33 111-92 124 6 28 34 38 68 31l-1 36C177 83 129 55 120 2 51-6 15-50 15-125c0-81 44-126 125-126zm-1 214c52 0 73-35 73-88 0-50-21-86-72-86-52 0-73 35-73 86s22 88 72 88" id="aC"/><path fill="#a9afb8" d="M133-34C117-15 103 5 69 4 32 3 11-16 11-54c-1-60 55-63 116-61 1-26-3-47-28-47-18 1-26 9-28 27l-52-2c7-38 36-58 82-57s74 22 75 68l1 82c-1 14 12 18 25 15v27c-30 8-71 5-69-32zm-48 3c29 0 43-24 42-57-32 0-66-3-65 30 0 17 8 27 23 27" id="aD"/><path fill="#a9afb8" d="M25 0v-261h50V0H25" id="aE"/><g id="i"><use transform="matrix(0.0728395061728395,0,0,0.0728395061728395,0,0)" xlink:href="#aC"/><use transform="matrix(0.0728395061728395,0,0,0.0728395061728395,20.39506172839506,0)" xlink:href="#aw"/><use transform="matrix(0.0728395061728395,0,0,0.0728395061728395,36.34691358024691,0)" xlink:href="#aD"/><use transform="matrix(0.0728395061728395,0,0,0.0728395061728395,50.91481481481481,0)" xlink:href="#aE"/></g><path fill="#a9afb8" d="M240 0l2-218c-23 76-54 145-80 218h-23L58-218 59 0H30v-248h44l77 211c21-75 51-140 76-211h43V0h-30" id="aF"/><path fill="#a9afb8" d="M141-36C126-15 110 5 73 4 37 3 15-17 15-53c-1-64 63-63 125-63 3-35-9-54-41-54-24 1-41 7-42 31l-33-3c5-37 33-52 76-52 45 0 72 20 72 64v82c-1 20 7 32 28 27v20c-31 9-61-2-59-35zM48-53c0 20 12 33 32 33 41-3 63-29 60-74-43 2-92-5-92 41" id="aG"/><path fill="#a9afb8" d="M114-163C36-179 61-72 57 0H25l-1-190h30c1 12-1 29 2 39 6-27 23-49 58-41v29" id="aH"/><path fill="#a9afb8" d="M96-169c-40 0-48 33-48 73s9 75 48 75c24 0 41-14 43-38l32 2c-6 37-31 61-74 61-59 0-76-41-82-99-10-93 101-131 147-64 4 7 5 14 7 22l-32 3c-4-21-16-35-41-35" id="aI"/><path fill="#a9afb8" d="M84 4C-5 8 30-112 23-190h32v120c0 31 7 50 39 49 72-2 45-101 50-169h31l1 190h-30c-1-10 1-25-2-33-11 22-28 36-60 37" id="aJ"/><path fill="#a9afb8" d="M135-143c-3-34-86-38-87 0 15 53 115 12 119 90S17 21 10-45l28-5c4 36 97 45 98 0-10-56-113-15-118-90-4-57 82-63 122-42 12 7 21 19 24 35" id="aK"/><g id="j"><use transform="matrix(0.04248971193415638,0,0,0.04248971193415638,0,0)" xlink:href="#aF"/><use transform="matrix(0.04248971193415638,0,0,0.04248971193415638,12.704423868312757,0)" xlink:href="#aG"/><use transform="matrix(0.04248971193415638,0,0,0.04248971193415638,21.20236625514403,0)" xlink:href="#aH"/><use transform="matrix(0.04248971193415638,0,0,0.04248971193415638,26.25864197530864,0)" xlink:href="#aI"/><use transform="matrix(0.04248971193415638,0,0,0.04248971193415638,33.90679012345679,0)" xlink:href="#aJ"/><use transform="matrix(0.04248971193415638,0,0,0.04248971193415638,42.40473251028806,0)" xlink:href="#aK"/></g><path fill="#a9afb8" d="M197 0v-115H63V0H30v-248h33v105h134v-105h34V0h-34" id="aL"/><path fill="#a9afb8" d="M24-231v-30h32v30H24zM24 0v-190h32V0H24" id="aM"/><path fill="#a9afb8" d="M117-194c89-4 53 116 60 194h-32v-121c0-31-8-49-39-48C34-167 62-67 57 0H25l-1-190h30c1 10-1 24 2 32 11-22 29-35 61-36" id="aN"/><path fill="#a9afb8" d="M100-194c63 0 86 42 84 106H49c0 40 14 67 53 68 26 1 43-12 49-29l28 8c-11 28-37 45-77 45C44 4 14-33 15-96c1-61 26-98 85-98zm52 81c6-60-76-77-97-28-3 7-6 17-6 28h103" id="aO"/><g id="k"><use transform="matrix(0.04248971193415638,0,0,0.04248971193415638,0,0)" xlink:href="#aL"/><use transform="matrix(0.04248971193415638,0,0,0.04248971193415638,11.004835390946502,0)" xlink:href="#aM"/><use transform="matrix(0.04248971193415638,0,0,0.04248971193415638,14.361522633744855,0)" xlink:href="#aN"/><use transform="matrix(0.04248971193415638,0,0,0.04248971193415638,22.85946502057613,0)" xlink:href="#aO"/><use transform="matrix(0.04248971193415638,0,0,0.04248971193415638,31.357407407407408,0)" xlink:href="#aK"/></g><path fill="#a9afb8" d="M32 76v-337h29V76H32" id="aP"/><use transform="matrix(0.04248971193415638,0,0,0.04248971193415638,0,0)" xlink:href="#aP" id="l"/><path fill="#a9afb8" d="M153-248C145-148 188 4 80 4 36 3 13-21 6-62l32-5c4 25 16 42 43 43 27 0 39-20 39-49v-147H72v-28h81" id="aQ"/><g id="m"><use transform="matrix(0.04248971193415638,0,0,0.04248971193415638,0,0)" xlink:href="#aQ"/><use transform="matrix(0.04248971193415638,0,0,0.04248971193415638,7.648148148148148,0)" xlink:href="#aJ"/><use transform="matrix(0.04248971193415638,0,0,0.04248971193415638,16.14609053497942,0)" xlink:href="#aN"/><use transform="matrix(0.04248971193415638,0,0,0.04248971193415638,24.644032921810698,0)" xlink:href="#aO"/></g><path fill="#a9afb8" d="M134-131c28 9 52 24 51 62-1 50-34 73-85 73S17-19 16-69c0-36 21-54 49-61-75-25-45-126 34-121 46 3 78 18 79 63 0 33-17 51-44 57zm-34-11c31 1 46-15 46-44 0-28-17-43-47-42-29 0-46 13-45 42 1 28 16 44 46 44zm1 122c35 0 51-18 51-52 0-30-18-46-53-46-33 0-51 17-51 47 0 34 19 51 53 51" id="aR"/><path fill="#a9afb8" d="M68-38c1 34 0 65-14 84H32c9-13 17-26 17-46H33v-38h35" id="aS"/><g id="n"><use transform="matrix(0.04248971193415638,0,0,0.04248971193415638,0,0)" xlink:href="#aR"/><use transform="matrix(0.04248971193415638,0,0,0.04248971193415638,8.497942386831275,0)" xlink:href="#aS"/></g><path fill="#a9afb8" d="M101-251c82-7 93 87 43 132L82-64C71-53 59-42 53-27h129V0H18c2-99 128-94 128-182 0-28-16-43-45-43s-46 15-49 41l-32-3c6-41 34-60 81-64" id="aT"/><path fill="#a9afb8" d="M101-251c68 0 85 55 85 127S166 4 100 4C33 4 14-52 14-124c0-73 17-127 87-127zm-1 229c47 0 54-49 54-102s-4-102-53-102c-51 0-55 48-55 102 0 53 5 102 54 102" id="aU"/><g id="o"><use transform="matrix(0.04248971193415638,0,0,0.04248971193415638,0,0)" xlink:href="#aT"/><use transform="matrix(0.04248971193415638,0,0,0.04248971193415638,8.497942386831275,0)" xlink:href="#aU"/><use transform="matrix(0.04248971193415638,0,0,0.04248971193415638,16.99588477366255,0)" xlink:href="#aT"/><use transform="matrix(0.04248971193415638,0,0,0.04248971193415638,25.493827160493822,0)" xlink:href="#aT"/></g><path fill="#333" d="M33-154v-36h34v36H33zM33 0v-36h34V0H33" id="aV"/><g id="p"><use transform="matrix(0.05,0,0,0.05,0,0)" xlink:href="#aa"/><use transform="matrix(0.05,0,0,0.05,10,0)" xlink:href="#ab"/><use transform="matrix(0.05,0,0,0.05,20,0)" xlink:href="#ab"/><use transform="matrix(0.05,0,0,0.05,30,0)" xlink:href="#aV"/></g><path fill="#333" d="M30 0v-248h33v221h125V0H30" id="aW"/><path fill="#333" d="M117-194c89-4 53 116 60 194h-32v-121c0-31-8-49-39-48C34-167 62-67 57 0H25l-1-190h30c1 10-1 24 2 32 11-22 29-35 61-36" id="aX"/><path fill="#333" d="M143 0L79-87 56-68V0H24v-261h32v163l83-92h37l-77 82L181 0h-38" id="aY"/><g id="q"><use transform="matrix(0.05,0,0,0.05,0,0)" xlink:href="#aW"/><use transform="matrix(0.05,0,0,0.05,10,0)" xlink:href="#aj"/><use transform="matrix(0.05,0,0,0.05,13.949999999999998,0)" xlink:href="#aX"/><use transform="matrix(0.05,0,0,0.05,23.95,0)" xlink:href="#aY"/></g><path fill="#333" d="M140-251c81 0 123 46 123 126C263-53 228-8 163 1c7 30 30 48 69 40v23c-55 16-95-15-103-61C56-3 17-48 17-125c0-80 42-126 123-126zm0 227c63 0 89-41 89-101s-29-99-89-99c-61 0-89 39-89 99S79-25 140-24" id="aZ"/><g id="r"><use transform="matrix(0.05,0,0,0.05,0,0)" xlink:href="#aZ"/><use transform="matrix(0.05,0,0,0.05,14,0)" xlink:href="#al"/><use transform="matrix(0.05,0,0,0.05,24,0)" xlink:href="#aa"/><use transform="matrix(0.05,0,0,0.05,34,0)" xlink:href="#ap"/></g><path fill="#333" d="M140-251c81 0 123 46 123 126C263-46 219 4 140 4 59 4 17-45 17-125s42-126 123-126zm0 227c63 0 89-41 89-101s-29-99-89-99c-61 0-89 39-89 99S79-25 140-24" id="ba"/><path fill="#333" d="M96-169c-40 0-48 33-48 73s9 75 48 75c24 0 41-14 43-38l32 2c-6 37-31 61-74 61-59 0-76-41-82-99-10-93 101-131 147-64 4 7 5 14 7 22l-32 3c-4-21-16-35-41-35" id="bb"/><path fill="#333" d="M106-169C34-169 62-67 57 0H25v-261h32l-1 103c12-21 28-36 61-36 89 0 53 116 60 194h-32v-121c2-32-8-49-39-48" id="bc"/><g id="s"><use transform="matrix(0.05,0,0,0.05,0,0)" xlink:href="#ba"/><use transform="matrix(0.05,0,0,0.05,14,0)" xlink:href="#af"/><use transform="matrix(0.05,0,0,0.05,19.95,0)" xlink:href="#bb"/><use transform="matrix(0.05,0,0,0.05,28.950000000000003,0)" xlink:href="#bc"/><use transform="matrix(0.05,0,0,0.05,38.95,0)" xlink:href="#ad"/><use transform="matrix(0.05,0,0,0.05,48.95,0)" xlink:href="#an"/><use transform="matrix(0.05,0,0,0.05,57.95,0)" xlink:href="#ac"/><use transform="matrix(0.05,0,0,0.05,62.95,0)" xlink:href="#af"/><use transform="matrix(0.05,0,0,0.05,68.9,0)" xlink:href="#aa"/><use transform="matrix(0.05,0,0,0.05,78.9,0)" xlink:href="#ac"/><use transform="matrix(0.05,0,0,0.05,83.9,0)" xlink:href="#ag"/><use transform="matrix(0.05,0,0,0.05,93.9,0)" xlink:href="#af"/></g><path fill="#333" d="M177-190C167-65 218 103 67 71c-23-6-38-20-44-43l32-5c15 47 100 32 89-28v-30C133-14 115 1 83 1 29 1 15-40 15-95c0-56 16-97 71-98 29-1 48 16 59 35 1-10 0-23 2-32h30zM94-22c36 0 50-32 50-73 0-42-14-75-50-75-39 0-46 34-46 75s6 73 46 73" id="bd"/><g id="t"><use transform="matrix(0.05,0,0,0.05,0,0)" xlink:href="#bd"/><use transform="matrix(0.05,0,0,0.05,10,0)" xlink:href="#ad"/><use transform="matrix(0.05,0,0,0.05,20,0)" xlink:href="#aX"/><use transform="matrix(0.05,0,0,0.05,30,0)" xlink:href="#aV"/></g><g id="u"><use transform="matrix(0.05,0,0,0.05,0,0)" xlink:href="#aZ"/><use transform="matrix(0.05,0,0,0.05,14,0)" xlink:href="#al"/><use transform="matrix(0.05,0,0,0.05,24,0)" xlink:href="#aa"/><use transform="matrix(0.05,0,0,0.05,34,0)" xlink:href="#ap"/></g><path fill="#333" d="M185-189c-5-48-123-54-124 2 14 75 158 14 163 119 3 78-121 87-175 55-17-10-28-26-33-46l33-7c5 56 141 63 141-1 0-78-155-14-162-118-5-82 145-84 179-34 5 7 8 16 11 25" id="be"/><path fill="#333" d="M108 0H70L1-190h34L89-25l56-165h34" id="bf"/><g id="v"><use transform="matrix(0.05,0,0,0.05,0,0)" xlink:href="#be"/><use transform="matrix(0.05,0,0,0.05,12,0)" xlink:href="#ad"/><use transform="matrix(0.05,0,0,0.05,22,0)" xlink:href="#af"/><use transform="matrix(0.05,0,0,0.05,27.950000000000003,0)" xlink:href="#bf"/><use transform="matrix(0.05,0,0,0.05,36.95,0)" xlink:href="#aj"/><use transform="matrix(0.05,0,0,0.05,40.900000000000006,0)" xlink:href="#bb"/><use transform="matrix(0.05,0,0,0.05,49.900000000000006,0)" xlink:href="#ad"/></g><g id="w"><use transform="matrix(0.05,0,0,0.05,0,0)" xlink:href="#af"/><use transform="matrix(0.05,0,0,0.05,5.95,0)" xlink:href="#ad"/><use transform="matrix(0.05,0,0,0.05,15.949999999999998,0)" xlink:href="#ae"/><use transform="matrix(0.05,0,0,0.05,20.95,0)" xlink:href="#ap"/><use transform="matrix(0.05,0,0,0.05,24.9,0)" xlink:href="#ad"/><use transform="matrix(0.05,0,0,0.05,34.9,0)" xlink:href="#bb"/><use transform="matrix(0.05,0,0,0.05,43.9,0)" xlink:href="#ac"/><use transform="matrix(0.05,0,0,0.05,48.9,0)" xlink:href="#aV"/></g><g id="x"><use transform="matrix(0.05,0,0,0.05,0,0)" xlink:href="#ai"/><use transform="matrix(0.05,0,0,0.05,14,0)" xlink:href="#ad"/><use transform="matrix(0.05,0,0,0.05,24,0)" xlink:href="#ac"/></g><path fill="#333" d="M212-179c-10-28-35-45-73-45-59 0-87 40-87 99 0 60 29 101 89 101 43 0 62-24 78-52l27 14C228-24 195 4 139 4 59 4 22-46 18-125c-6-104 99-153 187-111 19 9 31 26 39 46" id="bg"/><g id="y"><use transform="matrix(0.05,0,0,0.05,0,0)" xlink:href="#bg"/><use transform="matrix(0.05,0,0,0.05,12.950000000000001,0)" xlink:href="#aa"/><use transform="matrix(0.05,0,0,0.05,22.950000000000003,0)" xlink:href="#ab"/><use transform="matrix(0.05,0,0,0.05,32.95,0)" xlink:href="#aa"/><use transform="matrix(0.05,0,0,0.05,42.95,0)" xlink:href="#am"/><use transform="matrix(0.05,0,0,0.05,52.95,0)" xlink:href="#aj"/><use transform="matrix(0.05,0,0,0.05,56.900000000000006,0)" xlink:href="#ap"/><use transform="matrix(0.05,0,0,0.05,60.85,0)" xlink:href="#aj"/><use transform="matrix(0.05,0,0,0.05,64.80000000000001,0)" xlink:href="#ac"/><use transform="matrix(0.05,0,0,0.05,69.80000000000001,0)" xlink:href="#aj"/><use transform="matrix(0.05,0,0,0.05,73.75000000000001,0)" xlink:href="#ad"/><use transform="matrix(0.05,0,0,0.05,83.75000000000001,0)" xlink:href="#an"/></g><path fill="#333" d="M87 75C49 33 22-17 22-94c0-76 28-126 65-167h31c-38 41-64 92-64 168S80 34 118 75H87" id="bh"/><path fill="#333" d="M33-261c38 41 65 92 65 168S71 34 33 75H2C39 34 66-17 66-93S39-220 2-261h31" id="bi"/><g id="z"><use transform="matrix(0.05,0,0,0.05,0,0)" xlink:href="#bg"/><use transform="matrix(0.05,0,0,0.05,12.950000000000001,0)" xlink:href="#aa"/><use transform="matrix(0.05,0,0,0.05,22.950000000000003,0)" xlink:href="#ab"/><use transform="matrix(0.05,0,0,0.05,32.95,0)" xlink:href="#aa"/><use transform="matrix(0.05,0,0,0.05,42.95,0)" xlink:href="#am"/><use transform="matrix(0.05,0,0,0.05,52.95,0)" xlink:href="#aj"/><use transform="matrix(0.05,0,0,0.05,56.900000000000006,0)" xlink:href="#ap"/><use transform="matrix(0.05,0,0,0.05,60.85,0)" xlink:href="#aj"/><use transform="matrix(0.05,0,0,0.05,64.80000000000001,0)" xlink:href="#ac"/><use transform="matrix(0.05,0,0,0.05,69.80000000000001,0)" xlink:href="#aj"/><use transform="matrix(0.05,0,0,0.05,73.75000000000001,0)" xlink:href="#ad"/><use transform="matrix(0.05,0,0,0.05,83.75000000000001,0)" xlink:href="#an"/><use transform="matrix(0.05,0,0,0.05,92.75000000000001,0)" xlink:href="#bh"/><use transform="matrix(0.05,0,0,0.05,98.70000000000002,0)" xlink:href="#bi"/></g><path fill="#333" d="M179-190L93 31C79 59 56 82 12 73V49c39 6 53-20 64-50L1-190h34L92-34l54-156h33" id="bj"/><path fill="#333" d="M233-177c-1 41-23 64-60 70L243 0h-38l-65-103H63V0H30v-248c88 3 205-21 203 71zM63-129c60-2 137 13 137-47 0-61-80-42-137-45v92" id="bk"/><g id="A"><use transform="matrix(0.05,0,0,0.05,0,0)" xlink:href="#bg"/><use transform="matrix(0.05,0,0,0.05,12.950000000000001,0)" xlink:href="#aa"/><use transform="matrix(0.05,0,0,0.05,22.950000000000003,0)" xlink:href="#ab"/><use transform="matrix(0.05,0,0,0.05,32.95,0)" xlink:href="#aa"/><use transform="matrix(0.05,0,0,0.05,42.95,0)" xlink:href="#am"/><use transform="matrix(0.05,0,0,0.05,52.95,0)" xlink:href="#aj"/><use transform="matrix(0.05,0,0,0.05,56.900000000000006,0)" xlink:href="#ap"/><use transform="matrix(0.05,0,0,0.05,60.85,0)" xlink:href="#aj"/><use transform="matrix(0.05,0,0,0.05,64.80000000000001,0)" xlink:href="#ac"/><use transform="matrix(0.05,0,0,0.05,69.80000000000001,0)" xlink:href="#aj"/><use transform="matrix(0.05,0,0,0.05,73.75000000000001,0)" xlink:href="#ac"/><use transform="matrix(0.05,0,0,0.05,78.75000000000001,0)" xlink:href="#bj"/><use transform="matrix(0.05,0,0,0.05,87.75000000000001,0)" xlink:href="#bk"/><use transform="matrix(0.05,0,0,0.05,100.70000000000002,0)" xlink:href="#ad"/><use transform="matrix(0.05,0,0,0.05,110.7,0)" xlink:href="#an"/><use transform="matrix(0.05,0,0,0.05,119.7,0)" xlink:href="#ab"/><use transform="matrix(0.05,0,0,0.05,129.70000000000002,0)" xlink:href="#ag"/><use transform="matrix(0.05,0,0,0.05,139.70000000000002,0)" xlink:href="#aX"/><use transform="matrix(0.05,0,0,0.05,149.70000000000002,0)" xlink:href="#an"/><use transform="matrix(0.05,0,0,0.05,158.70000000000002,0)" xlink:href="#ad"/></g><path fill="#333" d="M30-248c118-7 216 8 213 122C240-48 200 0 122 0H30v-248zM63-27c89 8 146-16 146-99s-60-101-146-95v194" id="bl"/><g id="B"><use transform="matrix(0.05,0,0,0.05,0,0)" xlink:href="#bl"/><use transform="matrix(0.05,0,0,0.05,12.950000000000001,0)" xlink:href="#ad"/><use transform="matrix(0.05,0,0,0.05,22.950000000000003,0)" xlink:href="#bb"/><use transform="matrix(0.05,0,0,0.05,31.950000000000003,0)" xlink:href="#aj"/><use transform="matrix(0.05,0,0,0.05,35.900000000000006,0)" xlink:href="#Z"/><use transform="matrix(0.05,0,0,0.05,45.900000000000006,0)" xlink:href="#ad"/></g><path fill="#333" d="M206 0h-36l-40-164L89 0H53L-1-190h32L70-26l43-164h34l41 164 42-164h31" id="bm"/><g id="C"><use transform="matrix(0.05,0,0,0.05,0,0)" xlink:href="#bm"/><use transform="matrix(0.05,0,0,0.05,12.950000000000001,0)" xlink:href="#bc"/><use transform="matrix(0.05,0,0,0.05,22.950000000000003,0)" xlink:href="#aj"/><use transform="matrix(0.05,0,0,0.05,26.900000000000002,0)" xlink:href="#bb"/><use transform="matrix(0.05,0,0,0.05,35.900000000000006,0)" xlink:href="#bc"/></g><g id="D"><use transform="matrix(0.05,0,0,0.05,0,0)" xlink:href="#bd"/><use transform="matrix(0.05,0,0,0.05,10,0)" xlink:href="#ad"/><use transform="matrix(0.05,0,0,0.05,20,0)" xlink:href="#aX"/><use transform="matrix(0.05,0,0,0.05,30,0)" xlink:href="#ad"/><use transform="matrix(0.05,0,0,0.05,40,0)" xlink:href="#af"/><use transform="matrix(0.05,0,0,0.05,45.95,0)" xlink:href="#aa"/><use transform="matrix(0.05,0,0,0.05,55.95,0)" xlink:href="#ac"/><use transform="matrix(0.05,0,0,0.05,60.95,0)" xlink:href="#ag"/><use transform="matrix(0.05,0,0,0.05,70.95,0)" xlink:href="#af"/></g><g id="E"><use transform="matrix(0.05,0,0,0.05,0,0)" xlink:href="#ac"/><use transform="matrix(0.05,0,0,0.05,5,0)" xlink:href="#bj"/><use transform="matrix(0.05,0,0,0.05,14,0)" xlink:href="#ab"/><use transform="matrix(0.05,0,0,0.05,24,0)" xlink:href="#ad"/></g><path fill="#333" d="M0 4l72-265h28L28 4H0" id="bn"/><use transform="matrix(0.05,0,0,0.05,0,0)" xlink:href="#bn" id="F"/><g id="G"><use transform="matrix(0.05,0,0,0.05,0,0)" xlink:href="#af"/><use transform="matrix(0.05,0,0,0.05,5.95,0)" xlink:href="#ad"/><use transform="matrix(0.05,0,0,0.05,15.949999999999998,0)" xlink:href="#ae"/><use transform="matrix(0.05,0,0,0.05,20.95,0)" xlink:href="#ap"/><use transform="matrix(0.05,0,0,0.05,24.9,0)" xlink:href="#ad"/><use transform="matrix(0.05,0,0,0.05,34.9,0)" xlink:href="#bb"/><use transform="matrix(0.05,0,0,0.05,43.9,0)" xlink:href="#ac"/><use transform="matrix(0.05,0,0,0.05,48.9,0)" xlink:href="#ag"/><use transform="matrix(0.05,0,0,0.05,58.900000000000006,0)" xlink:href="#af"/></g><g id="H"><use transform="matrix(0.05,0,0,0.05,0,0)" xlink:href="#ac"/><use transform="matrix(0.05,0,0,0.05,5,0)" xlink:href="#ag"/></g><g id="I"><use transform="matrix(0.05,0,0,0.05,0,0)" xlink:href="#al"/><use transform="matrix(0.05,0,0,0.05,10,0)" xlink:href="#an"/><use transform="matrix(0.05,0,0,0.05,19,0)" xlink:href="#ad"/></g><g id="J"><use transform="matrix(0.05,0,0,0.05,0,0)" xlink:href="#bg"/><use transform="matrix(0.05,0,0,0.05,12.950000000000001,0)" xlink:href="#af"/><use transform="matrix(0.05,0,0,0.05,18.900000000000002,0)" xlink:href="#ad"/><use transform="matrix(0.05,0,0,0.05,28.900000000000002,0)" xlink:href="#aa"/><use transform="matrix(0.05,0,0,0.05,38.900000000000006,0)" xlink:href="#ac"/><use transform="matrix(0.05,0,0,0.05,43.900000000000006,0)" xlink:href="#ad"/><use transform="matrix(0.05,0,0,0.05,53.900000000000006,0)" xlink:href="#bh"/><use transform="matrix(0.05,0,0,0.05,59.85,0)" xlink:href="#bi"/></g><path fill="#333" d="M137 0h-34L2-248h35l83 218 83-218h36" id="bo"/><g id="K"><use transform="matrix(0.05,0,0,0.05,0,0)" xlink:href="#bo"/><use transform="matrix(0.05,0,0,0.05,10.65,0)" xlink:href="#aa"/><use transform="matrix(0.05,0,0,0.05,20.65,0)" xlink:href="#ap"/><use transform="matrix(0.05,0,0,0.05,24.599999999999998,0)" xlink:href="#aj"/><use transform="matrix(0.05,0,0,0.05,28.549999999999997,0)" xlink:href="#Z"/><use transform="matrix(0.05,0,0,0.05,38.55,0)" xlink:href="#aa"/><use transform="matrix(0.05,0,0,0.05,48.55,0)" xlink:href="#ac"/><use transform="matrix(0.05,0,0,0.05,53.54999999999999,0)" xlink:href="#ad"/></g><path fill="#333" d="M145-31C134-9 116 4 85 4 32 4 16-35 15-94c0-59 17-99 70-100 32-1 48 14 60 33 0-11-1-24 2-32h30l-1 268h-32zM93-21c41 0 51-33 51-76s-8-73-50-73c-40 0-46 35-46 75s5 74 45 74" id="bp"/><g id="L"><use transform="matrix(0.05,0,0,0.05,0,0)" xlink:href="#bg"/><use transform="matrix(0.05,0,0,0.05,12.950000000000001,0)" xlink:href="#af"/><use transform="matrix(0.05,0,0,0.05,18.900000000000002,0)" xlink:href="#ad"/><use transform="matrix(0.05,0,0,0.05,28.900000000000002,0)" xlink:href="#aa"/><use transform="matrix(0.05,0,0,0.05,38.900000000000006,0)" xlink:href="#ac"/><use transform="matrix(0.05,0,0,0.05,43.900000000000006,0)" xlink:href="#ad"/><use transform="matrix(0.05,0,0,0.05,53.900000000000006,0)" xlink:href="#bk"/><use transform="matrix(0.05,0,0,0.05,66.85000000000001,0)" xlink:href="#ad"/><use transform="matrix(0.05,0,0,0.05,76.85000000000001,0)" xlink:href="#bp"/><use transform="matrix(0.05,0,0,0.05,86.85000000000001,0)" xlink:href="#al"/><use transform="matrix(0.05,0,0,0.05,96.85000000000001,0)" xlink:href="#ad"/><use transform="matrix(0.05,0,0,0.05,106.85000000000001,0)" xlink:href="#an"/><use transform="matrix(0.05,0,0,0.05,115.85000000000001,0)" xlink:href="#ac"/></g><g id="M"><use transform="matrix(0.05,0,0,0.05,0,0)" xlink:href="#aW"/><use transform="matrix(0.05,0,0,0.05,10,0)" xlink:href="#ag"/><use transform="matrix(0.05,0,0,0.05,20,0)" xlink:href="#ag"/><use transform="matrix(0.05,0,0,0.05,30,0)" xlink:href="#ab"/></g><g id="N"><use transform="matrix(0.05,0,0,0.05,0,0)" xlink:href="#ai"/><use transform="matrix(0.05,0,0,0.05,14,0)" xlink:href="#ad"/><use transform="matrix(0.05,0,0,0.05,24,0)" xlink:href="#ac"/></g><g id="O"><use transform="matrix(0.05,0,0,0.05,0,0)" xlink:href="#al"/><use transform="matrix(0.05,0,0,0.05,10,0)" xlink:href="#aX"/><use transform="matrix(0.05,0,0,0.05,20,0)" xlink:href="#ac"/><use transform="matrix(0.05,0,0,0.05,25,0)" xlink:href="#aj"/><use transform="matrix(0.05,0,0,0.05,28.950000000000003,0)" xlink:href="#ap"/></g><g id="P"><use transform="matrix(0.05,0,0,0.05,0,0)" xlink:href="#bp"/><use transform="matrix(0.05,0,0,0.05,10,0)" xlink:href="#al"/><use transform="matrix(0.05,0,0,0.05,20,0)" xlink:href="#aa"/><use transform="matrix(0.05,0,0,0.05,30,0)" xlink:href="#ap"/></g><g id="Q"><use transform="matrix(0.05,0,0,0.05,0,0)" xlink:href="#bb"/><use transform="matrix(0.05,0,0,0.05,9,0)" xlink:href="#ag"/><use transform="matrix(0.05,0,0,0.05,19,0)" xlink:href="#ah"/><use transform="matrix(0.05,0,0,0.05,33.95,0)" xlink:href="#ab"/><use transform="matrix(0.05,0,0,0.05,43.95,0)" xlink:href="#ap"/><use transform="matrix(0.05,0,0,0.05,47.900000000000006,0)" xlink:href="#ad"/><use transform="matrix(0.05,0,0,0.05,57.900000000000006,0)" xlink:href="#ac"/><use transform="matrix(0.05,0,0,0.05,62.900000000000006,0)" xlink:href="#ad"/></g><g id="R"><use transform="matrix(0.05,0,0,0.05,0,0)" xlink:href="#aW"/><use transform="matrix(0.05,0,0,0.05,10,0)" xlink:href="#ag"/><use transform="matrix(0.05,0,0,0.05,20,0)" xlink:href="#ag"/><use transform="matrix(0.05,0,0,0.05,30,0)" xlink:href="#ab"/></g><path fill="#333" d="M26 75v-336h71v23H56V52h41v23H26" id="bq"/><path fill="#333" d="M-5 72V49h209v23H-5" id="br"/><path fill="#333" d="M3 75V52h41v-290H3v-23h71V75H3" id="bs"/><g id="S"><use transform="matrix(0.05,0,0,0.05,0,0)" xlink:href="#bq"/><use transform="matrix(0.05,0,0,0.05,5,0)" xlink:href="#al"/><use transform="matrix(0.05,0,0,0.05,15,0)" xlink:href="#ab"/><use transform="matrix(0.05,0,0,0.05,25,0)" xlink:href="#Z"/><use transform="matrix(0.05,0,0,0.05,35,0)" xlink:href="#aa"/><use transform="matrix(0.05,0,0,0.05,45,0)" xlink:href="#ac"/><use transform="matrix(0.05,0,0,0.05,50,0)" xlink:href="#ad"/><use transform="matrix(0.05,0,0,0.05,60,0)" xlink:href="#br"/><use transform="matrix(0.05,0,0,0.05,70,0)" xlink:href="#aj"/><use transform="matrix(0.05,0,0,0.05,73.95,0)" xlink:href="#aX"/><use transform="matrix(0.05,0,0,0.05,83.95,0)" xlink:href="#ac"/><use transform="matrix(0.05,0,0,0.05,88.95,0)" xlink:href="#ad"/><use transform="matrix(0.05,0,0,0.05,98.95,0)" xlink:href="#af"/><use transform="matrix(0.05,0,0,0.05,104.9,0)" xlink:href="#bf"/><use transform="matrix(0.05,0,0,0.05,113.9,0)" xlink:href="#aa"/><use transform="matrix(0.05,0,0,0.05,123.9,0)" xlink:href="#ap"/><use transform="matrix(0.05,0,0,0.05,127.85000000000001,0)" xlink:href="#bs"/></g><g id="T"><use transform="matrix(0.05,0,0,0.05,0,0)" xlink:href="#ai"/><use transform="matrix(0.05,0,0,0.05,14,0)" xlink:href="#ad"/><use transform="matrix(0.05,0,0,0.05,24,0)" xlink:href="#ac"/><use transform="matrix(0.05,0,0,0.05,29,0)" xlink:href="#bh"/><use transform="matrix(0.05,0,0,0.05,34.95,0)" xlink:href="#bi"/></g><g id="U"><use transform="matrix(0.05,0,0,0.05,0,0)" xlink:href="#ai"/><use transform="matrix(0.05,0,0,0.05,14,0)" xlink:href="#ad"/><use transform="matrix(0.05,0,0,0.05,24,0)" xlink:href="#ac"/><use transform="matrix(0.05,0,0,0.05,29,0)" xlink:href="#bk"/><use transform="matrix(0.05,0,0,0.05,41.95,0)" xlink:href="#ad"/><use transform="matrix(0.05,0,0,0.05,51.95,0)" xlink:href="#an"/><use transform="matrix(0.05,0,0,0.05,60.95,0)" xlink:href="#ab"/><use transform="matrix(0.05,0,0,0.05,70.95,0)" xlink:href="#ag"/><use transform="matrix(0.05,0,0,0.05,80.95,0)" xlink:href="#aX"/><use transform="matrix(0.05,0,0,0.05,90.95,0)" xlink:href="#an"/><use transform="matrix(0.05,0,0,0.05,99.95,0)" xlink:href="#ad"/></g><g id="V"><use transform="matrix(0.05,0,0,0.05,0,0)" xlink:href="#bl"/><use transform="matrix(0.05,0,0,0.05,12.950000000000001,0)" xlink:href="#ad"/><use transform="matrix(0.05,0,0,0.05,22.950000000000003,0)" xlink:href="#ap"/><use transform="matrix(0.05,0,0,0.05,26.900000000000002,0)" xlink:href="#ad"/><use transform="matrix(0.05,0,0,0.05,36.900000000000006,0)" xlink:href="#ac"/><use transform="matrix(0.05,0,0,0.05,41.900000000000006,0)" xlink:href="#ad"/></g><g id="W"><use transform="matrix(0.05,0,0,0.05,0,0)" xlink:href="#af"/><use transform="matrix(0.05,0,0,0.05,5.95,0)" xlink:href="#ad"/><use transform="matrix(0.05,0,0,0.05,15.949999999999998,0)" xlink:href="#an"/><use transform="matrix(0.05,0,0,0.05,24.95,0)" xlink:href="#al"/><use transform="matrix(0.05,0,0,0.05,34.95,0)" xlink:href="#ap"/><use transform="matrix(0.05,0,0,0.05,38.900000000000006,0)" xlink:href="#ac"/><use transform="matrix(0.05,0,0,0.05,43.900000000000006,0)" xlink:href="#an"/></g><g id="X"><use transform="matrix(0.05,0,0,0.05,0,0)" xlink:href="#bl"/><use transform="matrix(0.05,0,0,0.05,12.950000000000001,0)" xlink:href="#ad"/><use transform="matrix(0.05,0,0,0.05,22.950000000000003,0)" xlink:href="#ap"/><use transform="matrix(0.05,0,0,0.05,26.900000000000002,0)" xlink:href="#ad"/><use transform="matrix(0.05,0,0,0.05,36.900000000000006,0)" xlink:href="#ac"/><use transform="matrix(0.05,0,0,0.05,41.900000000000006,0)" xlink:href="#ad"/><use transform="matrix(0.05,0,0,0.05,51.900000000000006,0)" xlink:href="#bh"/><use transform="matrix(0.05,0,0,0.05,57.85,0)" xlink:href="#bi"/></g></defs></g></svg>